/* XPM */
static char *golden_rotate_6_1737769937[] = {
/* columns rows colors chars-per-pixel */
"32 32 149 2 ",
"   c black",
".  c #010000",
"X  c #000100",
"o  c #010100",
"O  c #030000",
"+  c #020001",
"@  c #000200",
"#  c #010200",
"$  c #000300",
"%  c #010300",
"&  c #000201",
"*  c #030200",
"=  c #030300",
"-  c #030301",
";  c #000002",
":  c #010002",
">  c #000102",
",  c #030002",
"<  c #030102",
"1  c #000202",
"2  c #000302",
"3  c #000303",
"4  c #040000",
"5  c #050000",
"6  c #050100",
"7  c #060000",
"8  c #070000",
"9  c #050200",
"0  c #040300",
"q  c #050003",
"w  c #070002",
"e  c #070003",
"r  c #070103",
"t  c #000400",
"y  c #010400",
"u  c #000500",
"i  c #020400",
"p  c #000600",
"a  c #000700",
"s  c #030600",
"d  c #000502",
"f  c #050600",
"g  c #050402",
"h  c #000004",
"j  c #010004",
"k  c #000005",
"l  c #010005",
"z  c #000105",
"x  c #030004",
"c  c #030104",
"v  c #030005",
"b  c #000204",
"n  c #000205",
"m  c #000007",
"M  c #010007",
"N  c #020106",
"B  c #030106",
"V  c #000206",
"C  c #000207",
"Z  c #000307",
"A  c #030207",
"S  c #020307",
"D  c #040005",
"F  c #050005",
"G  c #060004",
"H  c #070005",
"J  c #060007",
"K  c #000604",
"L  c #020605",
"P  c #000406",
"I  c #000606",
"U  c gray2",
"Y  c #060407",
"T  c #080000",
"R  c #0A0000",
"E  c #0B0000",
"W  c #0F0000",
"Q  c #0F0100",
"!  c #090500",
"~  c #0A0700",
"^  c #080005",
"/  c #090005",
"(  c #0A0104",
")  c #080007",
"_  c #090007",
"`  c #0A0106",
"'  c #000900",
"]  c #000A00",
"[  c #000B00",
"{  c #000009",
"}  c #000308",
"|  c #000209",
" . c #020308",
".. c #00020B",
"X. c #040009",
"o. c #060108",
"O. c #060009",
"+. c #04000A",
"@. c #000408",
"#. c #000409",
"$. c #010609",
"%. c #00040A",
"&. c #050409",
"*. c #00000C",
"=. c #00030C",
"-. c #02000F",
";. c #0A000A",
":. c #0A030B",
">. c #0E000C",
",. c #000F0B",
"<. c #080E0A",
"1. c #110000",
"2. c #000010",
"3. c #000012",
"4. c #010013",
"5. c #080010",
"6. c #000A16",
"7. c #FFC400",
"8. c #FFC500",
"9. c #FCC601",
"0. c #FFC700",
"q. c #FFC204",
"w. c #FFC507",
"e. c #FFC706",
"r. c #F3CA00",
"t. c #F6CD00",
"y. c #F9CA00",
"u. c #F9C802",
"i. c #FFC800",
"p. c #FECB00",
"a. c #FFCD00",
"s. c #FEC806",
"d. c #FCC709",
"f. c #F4D200",
"g. c #FBD000",
"h. c #FED001",
"j. c #F9D006",
"k. c #FDCD15",
"l. c #FDE642",
"z. c #FEE743",
"x. c #FFE14B",
"c. c #FFE549",
"v. c #F7E94A",
"b. c #F4EA4D",
"n. c #F7EA4E",
"m. c #FFEA4F",
"M. c #FBE252",
"N. c #FCDC61",
"B. c #FEFAF9",
/* pixels */
"                e { u ` $.    2.2.  u $.` u { e                 ",
"                  L   `     ~     ~     ;.  l                   ",
"                Y     l   D !   u e D   D   u L                 ",
"                    $.l   ` e $.$.e `     $.                    ",
"                e   L   { u   4.2.    &.  $.  e                 ",
"                e     l { u $.1.E $.  l l   e                   ",
"                e   <.D ` '   N.N.l ' ` l <.  e                 ",
"                l   u ;.E u e a.h.! u ! ;.u   l                 ",
"                e   u e l {   p.s.e e l l u   e                 ",
"                  u   Y { l ,.s.p.L   u   f u D                 ",
"                { u E       ' p.7.L f e   e l l                 ",
"                u   5.f L f >.0.f.l   2.    '                   ",
"                  &.  ` ' l r.w.1.v.  u   u { D                 ",
"                  l   ` u l q.g.{ x.l $.  L D                   ",
"                  l ' u     u.n.l c.{       l u                 ",
"                  4.l l   e m.B.e n.$.  e e {                   ",
"                u l e u `   M.z.e b.$.  e e l                   ",
"                u o.{ ' { e z.k.  c.{ l     l u                 ",
"                e D u l L   s.9.l x.l $.  L D                   ",
"                D ;.L   u u t.a.1.v.  u e u { l                 ",
"                u   D { D E 5.0.f.{   2.  e '                   ",
"                u ` ;.' e e 6.y.0.L u e u e   l                 ",
"                l e u ! u l ! j.p.l       f u l                 ",
"                l   { e l *.~ p.w.  ! l l     e                 ",
"                D   u ;.! u e h.a.! u ! ;.u   l                 ",
"                D   <.D ` ' l N.N.  ' ` l <.  e                 ",
"                      l l u &.Q E $.u { l u e                   ",
"                e   $.  {     2.2.l   D u {   e                 ",
"                    $.    ! e { $.e `   l {                     ",
"                Y u   D   e e u   ! D   D   u Y                 ",
"                  l   ;.  l ~     ~     D   L                   ",
"                e { u D $.u   2.2.  u $.` u { e                 "
};
