/* XPM */
static char *golden_rotate1737758999[] = {
/* columns rows colors chars-per-pixel */
"32 32 50 1 ",
"  c #000100",
". c #0A0202",
"X c #010901",
"o c #02010A",
"O c #0C000B",
"+ c #000011",
"@ c #0E0011",
"# c #FFBF00",
"$ c #EECB00",
"% c #F5C500",
"& c #FDC502",
"* c #F5CD00",
"= c #FDCB01",
"- c #F8C708",
"; c #FFCF0A",
": c #F6D502",
"> c #FED401",
", c #F5DB02",
"< c #FCDB02",
"1 c #FFD50B",
"2 c #F3DB09",
"3 c #FEDA0D",
"4 c #FDC210",
"5 c #FFD415",
"6 c #F5D913",
"7 c #FAE007",
"8 c #FFE30C",
"9 c #FDE13F",
"0 c #FFE83C",
"q c #FFDA44",
"w c #F4D848",
"e c #FADA52",
"r c #FFDF5C",
"t c #EFEA46",
"y c #F5EE46",
"u c #FFEA43",
"i c #F6E34B",
"p c #FDE24C",
"a c #F3EB49",
"s c #FCE94C",
"d c #FEF047",
"f c #F6E654",
"g c #FDE554",
"h c #FEE953",
"j c #FEE15A",
"k c #FFEE5C",
"l c #F9DF64",
"z c #FFF4A5",
"x c #FFF5B2",
"c c #FFFBFB",
/* pixels */
"          o. O o  O X X         ",
"         o X  X X  XXOoo        ",
"          X+ OoXXoo +           ",
"        o +.X .oo. ..o o        ",
"              oX o              ",
"        .o  oX    XX oo         ",
"        oXo oOyffyOo o o        ",
"            yj=&&=ja.  X        ",
"           s%=z><>=-g  o        ",
"        @ .j&c<>:>>,= o         ",
"          g*x>,><<3:1ao.        ",
"         Xe=<:1<p:<3=j.o        ",
"        Xp=1>21ij;>>>d=X        ",
"        ou-=7<e=i=>>3w&X        ",
"        o9=:7>=1k%<>,r*         ",
"        os:>>>>,i=1:>s*O        ",
"         p$><>,>g=<<>f&         ",
"         s5;,<>>s%<>>r=o        ",
"        Xq=><>5>u&6>>a&o        ",
"         j%3>><>i&<,;k=         ",
"        X.=<::><=&><p%O         ",
"         o%,3:<>>7<<h*o.        ",
"        .Xol>1>25:5p&ooX        ",
"         o ;g0<:<<pp;           ",
"         .  1&kffg#;  .         ",
"        oX .X.=&==.X.X o        ",
"         X.@ ..  .Xo@.X         ",
"         O X  X  X  X O         ",
"        X  ooXo .oXoo  X        ",
"        ..o o  oo     O.        ",
"        oo    X..X    o         ",
"         oXoo.o  ooooX+         "
};
