/* XPM */
static char *golden_rotate_3_1737769649[] = {
/* columns rows colors chars-per-pixel */
"32 32 50 1 ",
"  c #010100",
". c #0A0003",
"X c #010A01",
"o c #01010B",
"O c #0B010B",
"+ c #09090B",
"@ c #130000",
"# c #140009",
"$ c #010211",
"% c #0A0013",
"& c #EECB04",
"* c #F4C400",
"= c #FEC401",
"- c #FECB01",
"; c #F4C408",
": c #FDC50D",
"> c #F5CD0B",
", c #FDCB0B",
"< c #EAD404",
"1 c #F4D102",
"2 c #FDD502",
"3 c #F5DA00",
"4 c #FDDA00",
"5 c #F7D208",
"6 c #FED40B",
"7 c #F2DD08",
"8 c #FED909",
"9 c #FFC211",
"0 c #FFC811",
"q c #F8E300",
"w c #FFDE45",
"e c #FEDE4D",
"r c #FDDE50",
"t c #EFE545",
"y c #F4E545",
"u c #FEE446",
"i c #FBE941",
"p c #FCE44B",
"a c #FDE94C",
"s c #F7F047",
"d c #F1E654",
"f c #FDE454",
"g c #FBEB53",
"h c #F6E559",
"j c #FEE35A",
"k c #F2EA59",
"l c #FFEC5F",
"z c #FFF050",
"x c #FFE563",
"c c #FFE8A5",
/* pixels */
"        .X o  X   Ooo           ",
"        X o o. ooX  X oo        ",
"         o. X %  o X o X        ",
"        o   .X. O  .o o         ",
"        o. XOo$ o ooo  O        ",
"        . Xo.X#X X XX o         ",
"         oX # uous# o           ",
"        . o.X-Xf:*<#  oX        ",
"          .X=oy1262X X o        ",
"        O o -oac246yo. X        ",
"        oXX-Oa-2834j% O         ",
"        Xo.;Xd=7u42i1 $         ",
"         O- f=44f:2x=X .        ",
"        X.1Xj-,2y,4p=.o         ",
"        . = z-12y-4p-o          ",
"         oxou-48h=2k=X.o        ",
"          u.g-42j-qd9 o         ",
"         o>ot:42a--g-           ",
"        .X1.j141h-6u-oXo        ",
"         o=Xp=44f=8g=  o        ",
"        o. * :22-18w-oX         ",
"        X. ,X=2423r,.oX.        ",
"        oo%X=$2222j&X.o.        ",
"         O .-X2224f   Xo        ",
"        .Xo. -Xrjy&@ oXO        ",
"         oX #Xuo=2X  X.X        ",
"        . Xo.X#X.o.. ..         ",
"         . XO $ oXO o o.        ",
"        o   O . ..X$XX$X        ",
"         o#XX %  o  .           ",
"        X o o  o. X+Oo X        ",
"        .  oX X   oo   o        "
};
