/* XPM */
static char *golden_rotate_11_1737810512[] = {
/* columns rows colors chars-per-pixel */
"32 32 46 1 ",
"  c #010101",
". c #0B0102",
"X c #020901",
"o c #0B0803",
"O c #02010B",
"+ c #0A020C",
"@ c #000908",
"# c #040111",
"$ c #0B0015",
"% c #010810",
"& c #090810",
"* c #05001F",
"= c #F3C600",
"- c #FDC401",
"; c #F4CC01",
": c #FECC01",
"> c #F7CC0B",
", c #FCCA0B",
"< c #F6D601",
"1 c #FED401",
"2 c #F3D803",
"3 c #FEDA01",
"4 c #F2D308",
"5 c #FDD60B",
"6 c #F6DB0E",
"7 c #FEDB0F",
"8 c #FFC515",
"9 c #FCCF10",
"0 c #FFDF11",
"q c #FDE137",
"w c #FCE43E",
"e c #FFDB4D",
"r c #FED954",
"t c #FDDE5C",
"y c #FCE443",
"u c #F4E74D",
"i c #FEE34A",
"p c #F2E84A",
"a c #F9EC4E",
"s c #FDF04C",
"d c #FCE354",
"f c #FDE954",
"g c #FDE35C",
"h c #FEE95A",
"j c #F6F157",
"k c #FFEE92",
/* pixels */
"          #    #X# @ O X        ",
"        X OO +.     . .         ",
"        O+ X      .  o          ",
"         OX + XX O..+  X        ",
"         O  .O@ @O   O          ",
"        @ .  *   .@@ O          ",
"            X jw@t  X .X        ",
"        O. XO y8 :O@ .+         ",
"        OX  Od:61 :@.OO         ",
"          oOOd;k3 - O O         ",
"        O   s11<2g :&  o        ",
"          X d-1g<wO- O          ",
"         +@@d-<h7i:X:X O        ",
"         O  r:1y5w, =O.         ",
"         .  a;4u1i: ,XX         ",
"          X+y11g3g;Oe           ",
"        .@+ f11d1u:Or+.X        ",
"            g-<d5w-X1 O         ",
"           Xg=0d1h:#- +#        ",
"        @  Xy14q3i- : X.        ",
"            g-73<, 5+           ",
"        O#XOp-39i: :            ",
"         X ..1;3-X: .@ @        ",
"           # <3e, :OXO O        ",
"        XOXO .uf :OX  +         ",
"        #.  X.>-Ot  X .X        ",
"         #.  OX X.@@ O          ",
"        X X    .@O   +          ",
"        +..   .. O. + XX        ",
"         % #O O@  .  o          ",
"        + .   X    X.           ",
"         X   $ .X# @ O.         "
};
