/* XPM */
static char *golden_rotate_8_1737770176[] = {
/* columns rows colors chars-per-pixel */
"32 32 155 2 ",
"   c black",
".  c #010000",
"X  c #000100",
"o  c #010100",
"O  c #010101",
"+  c #030000",
"@  c #020100",
"#  c #030100",
"$  c #020001",
"%  c #000200",
"&  c #010200",
"*  c #000300",
"=  c #010300",
"-  c #000201",
";  c #020200",
":  c #030200",
">  c #030301",
",  c #000002",
"<  c #010002",
"1  c #000102",
"2  c #030002",
"3  c #030102",
"4  c #000202",
"5  c #000302",
"6  c #000303",
"7  c #040000",
"8  c #050000",
"9  c #040100",
"0  c #050100",
"q  c #060000",
"w  c #070000",
"e  c #050200",
"r  c #050003",
"t  c #060002",
"y  c #000400",
"u  c #010400",
"i  c #000500",
"p  c #020400",
"a  c #030400",
"s  c #000600",
"d  c #010600",
"f  c #000700",
"g  c #020600",
"h  c #030600",
"j  c #050400",
"k  c #050600",
"l  c #050503",
"z  c #000004",
"x  c #010004",
"c  c #000104",
"v  c #000005",
"b  c #010005",
"n  c #000105",
"m  c #030004",
"M  c #030104",
"N  c #020005",
"B  c #030005",
"V  c #000204",
"C  c #000205",
"Z  c #000007",
"A  c #010007",
"S  c #000107",
"D  c #020106",
"F  c #030106",
"G  c #000306",
"H  c #000207",
"J  c #000307",
"K  c #030207",
"L  c #040004",
"P  c #060004",
"I  c #000604",
"U  c #000406",
"Y  c gray2",
"T  c #0A0000",
"R  c #0B0000",
"E  c #0B0100",
"W  c #0A0200",
"Q  c #090002",
"!  c #0F0100",
"~  c #090500",
"^  c #080004",
"/  c #080005",
"(  c #090005",
")  c #0A0104",
"_  c #080007",
"`  c #0E0005",
"'  c #000800",
"]  c #000900",
"[  c #000B00",
"{  c #0C0904",
"}  c #000009",
"|  c #010009",
" . c #000308",
".. c #000209",
"X. c #020308",
"o. c #00000B",
"O. c #00020B",
"+. c #050008",
"@. c #060009",
"#. c #06000B",
"$. c #000408",
"%. c #000409",
"&. c #010609",
"*. c #00040A",
"=. c #00070A",
"-. c #00070B",
";. c #01000C",
":. c #00010C",
">. c #04000E",
",. c #05010F",
"<. c #080008",
"1. c #080009",
"2. c #0A000A",
"3. c #09000F",
"4. c #080E0A",
"5. c #110000",
"6. c #000010",
"7. c #030010",
"8. c #000012",
"9. c #010013",
"0. c #000014",
"q. c #02021E",
"w. c #F7C400",
"e. c #F9C300",
"r. c #FFC400",
"t. c #FFC602",
"y. c #F1C800",
"u. c #FFC800",
"i. c #FEC900",
"p. c #FFC901",
"a. c #FECB00",
"s. c #FFCD01",
"d. c #FEC806",
"f. c #FEC907",
"g. c #FFCA07",
"h. c #F9CA0A",
"j. c #FFC90A",
"k. c #FFCE0D",
"l. c #F2D000",
"z. c #F4D200",
"x. c #FED001",
"c. c #F8D507",
"v. c #F9D800",
"b. c #FFCD12",
"n. c #FFE13E",
"m. c #FFE049",
"M. c #FFE14B",
"N. c #FFE549",
"B. c #FFE74C",
"V. c #F7E94A",
"C. c #F4EA4D",
"Z. c #F9E94C",
"A. c #F9E052",
"S. c #FCDC61",
"D. c #FFF9FF",
/* pixels */
"                7 O.6 ( *.6 6 >.>.6 6 *.( 6 *.7                 ",
"                7 U   ( 6   ~     ~   6 (   m                   ",
"                Y     M   ( 7 6 6 W 7   m   6 Y                 ",
"                    *.    ) 7 *.*.j )   m X.                    ",
"                7   *.6 M 6   9.9.  6 M 6 U   7                 ",
"                7 M   m m 6 =.5.! *.  O.m   7 7                 ",
"                7   4.M ( '   S.S.  ' ( m 4.  M                 ",
"                  6 6 2.W 6 7 x.x.7 ' ! 2.6 6                   ",
"                7   6 m m 7 M d.g.6 ,.6 O.6   m                 ",
"                m   k   j   *.p.w.=.(   6 (                     ",
"                m m   j   k I r.k.' W   O.! j U                 ",
"                  ' 7   0.  m z.d.) 7 m 0.7 6                   ",
"                m O.  7 '   C.5.p.l.  6 6 6 j #.                ",
"                  m U   *.m M.m h.j.6 6 W O.  7                 ",
"                  m   7 m O.N.m n.b.  6 #.6 6 m                 ",
"                6 O.7 j   *.C.7 Z.m.U 7 j j 6 6                 ",
"                  O.W 7   *.C.7 D.B.6 =.#.W 6 7.                ",
"                  m   7   O.N.m v.A.O.    m ' 7                 ",
"                  Y U   *.m m.O.w.r.{ k m '   O.                ",
"                m O.6 6 6   Z.5.s.s.>.U   m 7 6                 ",
"                  '     0.  O.z.p.3.W 7 m   U m                 ",
"                m m 7 7 7 k ' r.y.' 7 6 6 2.                    ",
"                  6 k       U p.c.W q.[ O.6 W                   ",
"                7   6 m m W   j.r.      6 6 2.                  ",
"                M   6 2.! 6 7 x.x.W 6 W 2.6 6 m                 ",
"                M   4.M ( '   S.S.  [ (   4.  M                 ",
"                7   6 m m 6 I 5.! *.6 m m 6 7 7                 ",
"                7   *.  *.6   9.9.    *.  U   7                 ",
"                    *.m 7 ) j U *.j )   m *.                    ",
"                Y 6   7   M 7 6 6 7 (   m     Y                 ",
"                  m 6 (     W 6   W   6 (   U                   ",
"                7 *.6 ( *.6 6 9.>.6 6 *.( j O.7                 "
};
