/* XPM */
static char *golden_rotate_9_1737770257[] = {
/* columns rows colors chars-per-pixel */
"32 32 187 2 ",
"   c black",
".  c #010000",
"X  c #000100",
"o  c #010100",
"O  c #030000",
"+  c #020100",
"@  c #000200",
"#  c #010200",
"$  c #000300",
"%  c #000201",
"&  c #000002",
"*  c #010002",
"=  c #000102",
"-  c #030002",
";  c #030102",
":  c #000202",
">  c #000302",
",  c #010302",
"<  c gray1",
"1  c #040000",
"2  c #040100",
"3  c #050100",
"4  c #060000",
"5  c #070000",
"6  c #050200",
"7  c #040300",
"8  c #040301",
"9  c #040002",
"0  c #050003",
"q  c #070002",
"w  c #060203",
"e  c #000400",
"r  c #000500",
"t  c #000401",
"y  c #020400",
"u  c #000600",
"i  c #000700",
"p  c #000402",
"a  c #000502",
"s  c #040400",
"d  c #050500",
"f  c #000004",
"g  c #010004",
"h  c #000104",
"j  c #000005",
"k  c #010005",
"l  c #000105",
"z  c #030004",
"x  c #030104",
"c  c #030005",
"v  c #000204",
"b  c #010204",
"n  c #000205",
"m  c #000007",
"M  c #010007",
"N  c #000107",
"B  c #010206",
"V  c #000306",
"C  c #030207",
"Z  c #060004",
"A  c #070004",
"S  c #060005",
"D  c #060105",
"F  c #040006",
"G  c #060107",
"H  c #000704",
"J  c #000606",
"K  c gray2",
"L  c #060405",
"P  c #040406",
"I  c #080000",
"U  c #090000",
"Y  c #0A0000",
"T  c #0A0100",
"R  c #0A0001",
"E  c #080003",
"W  c #0D0000",
"Q  c #0F0100",
"!  c #0D0002",
"~  c #090500",
"^  c #080005",
"/  c #090005",
"(  c #0A0104",
")  c #080007",
"_  c #0A0007",
"`  c #080405",
"'  c #000800",
"]  c #000900",
"[  c #020800",
"{  c #000009",
"}  c #030009",
"|  c #000208",
" . c #000308",
".. c #000209",
"X. c #020308",
"o. c #02000A",
"O. c #03000B",
"+. c #00020B",
"@. c #050008",
"#. c #06000A",
"$. c #030408",
"%. c #010609",
"&. c #00040A",
"*. c #00000C",
"=. c #01010D",
"-. c #00030C",
";. c #00000E",
":. c #00000F",
">. c #01000F",
",. c #00030E",
"<. c #05000C",
"1. c #00040C",
"2. c #080109",
"3. c #0A000A",
"4. c #0E0008",
"5. c #0C000B",
"6. c #080E0A",
"7. c #12000C",
"8. c #000010",
"9. c #030010",
"0. c #000012",
"q. c #070311",
"w. c #060219",
"e. c #FFBA00",
"r. c #F2C200",
"t. c #F7C100",
"y. c #FDC300",
"u. c #FBC500",
"i. c #FBC700",
"p. c #FFC600",
"a. c #F7CE04",
"s. c #F8C901",
"d. c #FFC800",
"f. c #FFCB00",
"g. c #FBCC00",
"h. c #FFCC00",
"j. c #FFCD00",
"k. c #FACF07",
"l. c #FCCC06",
"z. c #FFC50F",
"x. c #FFC808",
"c. c #FFCA0B",
"v. c #FBCB0F",
"b. c #FFC80E",
"n. c #EED405",
"m. c #F7D400",
"M. c #FBD200",
"N. c #FDD000",
"B. c #FED001",
"V. c #FFD200",
"C. c #FFD303",
"Z. c #FFD400",
"A. c #FFD600",
"S. c #FBD504",
"D. c #FBD506",
"F. c #FBD800",
"G. c #FFD900",
"H. c #FFDA00",
"J. c #FFDF02",
"K. c #F8D905",
"L. c #FAD807",
"P. c #F9DA06",
"I. c #FED906",
"U. c #FCDE04",
"Y. c #F5D409",
"T. c #FFD408",
"R. c #FDD60D",
"E. c #FED70D",
"W. c #F4D90E",
"Q. c #ECDE37",
"!. c #FFE739",
"~. c #FFDE45",
"^. c #FCE341",
"/. c #FFE248",
"(. c #FFE34A",
"). c #FFE34F",
"_. c #FBE949",
"`. c #F2E656",
"'. c #FFE052",
"]. c #FFE454",
"[. c #FBEC53",
"{. c #FCE25A",
"}. c #FFE25D",
"|. c #FFE45C",
" X c #F7E859",
".X c #FCDC61",
"XX c #FFFBFD",
/* pixels */
"                ; ..a ) %.a   8.8.  a %.) a ..;                 ",
"                  P   )     ~     ~     )   g                   ",
"                `     g   ) T a a T Z   Z     L                 ",
"                    ..g   ( ; %.%.; )   g %.                    ",
"                ; ; g a P   g 0.8.    Z   %.  ;                 ",
"                ; ;   g g a %.Q Q %.a g g   d                   ",
"                ;   6.g ) [   .X.X; [ ) g 6.  Z                 ",
"                g   a 3.T a T B.B.; a T 5.a   g                 ",
"                g a ; d :.; L.  g.c.a g T ; a :.                ",
"                Z   T   T   T.; d.y.w.[ a   T ;                 ",
"                  g g a Z a E.; s.v.    ; ..a ;                 ",
"                T T ; a [ d Q.8.v.k.  P T ; a                   ",
"                a a ..` <.L.!.J.T y.B.Q a g 9.a                 ",
"                  ; ;   a Z. XS.) l.a.g   ; 3.                  ",
"                a Z g     H.`.S.  '.Y.Z ; d   L                 ",
"                  T Z ..T H.].Z.a }.~.[ a g <.;                 ",
"                T   T L a U.).K.; XX/...g ..` a                 ",
"                  ; 8.;   I.(.H.  m.{.  [   5.                  ",
"                [ g <.  P Z.[.B.  r.M.a 4.; a g                 ",
"                ..a ; a   K._.W.  c.e...g   %.<.                ",
"                  ; ..  3.T F.Q s.j.a :.; q.                    ",
"                g     [ ; a E.:.j.t.~ :.a a ; ..                ",
"                ; %.T a ;   ^.  z.n.;   7.  g g                 ",
"                a <.:.g ; ..|.a d.d.[ ..; ; 3.a                 ",
"                g   a 3.T a T B.B.; a Q 3.a   Z                 ",
"                ;   6.Z ) [ g .X.X  [ ) Z 6.  ;                 ",
"                ; ; a g g a %.Q Q %.a g     ; ;                 ",
"                ;   ..  g     0.8.    ..  %.  ;                 ",
"                    %.g   ( ; %.1.; T   g %.                    ",
"                L     Z   ; T a a T Z   Z     L                 ",
"                  g   )     ~     ~     )   g                   ",
"                ; ..d ) %.a a 8.8.  a 1.) a ..;                 "
};
