/* XPM */
static char *golden_rotate_2_1737769590[] = {
/* columns rows colors chars-per-pixel */
"32 32 48 1 ",
"  c #010100",
". c #0A0103",
"X c #010901",
"o c #02010B",
"O c #0A020B",
"+ c #09090B",
"@ c #130002",
"# c #13000A",
"$ c #010213",
"% c #040814",
"& c #F3BF00",
"* c #ECCC07",
"= c #F4C400",
"- c #FEC501",
"; c #F7CC01",
": c #FDCC01",
"> c #FFC50C",
", c #FCCC09",
"< c #EAD404",
"1 c #F5D600",
"2 c #FDD301",
"3 c #F5DB00",
"4 c #FCDA01",
"5 c #FED30A",
"6 c #F4DC0A",
"7 c #FDDA0A",
"8 c #FACE10",
"9 c #FFD416",
"0 c #FFE00A",
"q c #FFE43B",
"w c #FEDB4D",
"e c #F7E543",
"r c #FCE444",
"t c #F3EA43",
"y c #FCE945",
"u c #F4E44A",
"i c #FCE44B",
"p c #F3E94E",
"a c #FEE84D",
"s c #F7F047",
"d c #F5F04A",
"f c #EEE356",
"g c #F5E255",
"h c #FEE452",
"j c #FDE955",
"k c #FFE45A",
"l c #F1F49B",
"z c #FBF4A1",
/* pixels */
"         o  o  o. +o            ",
"         .   o   X   Xoo        ",
"          o  +   o o +          ",
"        oX + o....  o o         ",
"        ooo oXo oXoo   o        ",
"        .     o     X o.        ",
"        . X$o#tiysO o           ",
"         oX .y;>>=<#  oX        ",
"          X w:z42727  .         ",
"           ohz159425 + o        ",
"         % al4523533io          ",
"        Oo k-424i253k@          ",
"          r:242ja-42p,oo        ",
"        %.w124p>r::5u:X         ",
"         #j-72-7k;24k:          ",
"        X p:5344q822a:          ",
"         or;2424a-43h; o        ",
"        o h82724h=35a:          ",
"         Xa:2221h:44g-@         ",
"         og:4447i&65j:          ",
"        . .:1572:-7q-O +        ",
"        .% 14532244h: X         ",
"          o@324517k-.oX         ",
"          .o724274e> o .        ",
"         o  #dukhi*@  XO        ",
"          Xoo@1--4  oX.X        ",
"         O . + Xo ..  o         ",
"        o   o O oX# o o.        ",
"         o %$  ...X$ X$         ",
"         Xo  XoX o  .           ",
"        .OO..      +Oo o        ",
"        o  X o o  OoX           "
};
