/* XPM */
static char *golden_rotate_12_1737810578[] = {
/* columns rows colors chars-per-pixel */
"32 32 49 1 ",
"  c #000101",
". c #0A0102",
"X c #010900",
"o c #01020B",
"O c #0A010B",
"+ c #160000",
"@ c #130009",
"# c #020012",
"$ c #0B0015",
"% c #020812",
"& c #FFBF00",
"* c #F3C400",
"= c #FEC501",
"- c #F6CC00",
"; c #FDCA02",
": c #FFC20A",
"> c #F7CF0B",
", c #FECA0A",
"< c #EFDC00",
"1 c #F4D500",
"2 c #FDD401",
"3 c #FCDB03",
"4 c #FED40C",
"5 c #F3D90A",
"6 c #FFDE09",
"7 c #FFCC11",
"8 c #FFDA15",
"9 c #F5E200",
"0 c #FFE005",
"q c #FFE137",
"w c #FCE53D",
"e c #FFDE44",
"r c #F7DF4B",
"t c #FDDF56",
"y c #F6E542",
"u c #FEE443",
"i c #F4EA44",
"p c #FCE944",
"a c #F6E44A",
"s c #FCE24B",
"d c #FEEA4E",
"f c #F5F04A",
"g c #F7E753",
"h c #FFE553",
"j c #F0ED52",
"k c #FCEA55",
"l c #FBEA5C",
"z c #FFF19F",
"x c #FFF0A3",
/* pixels */
"        Xo  o   .$o.o o         ",
"         .   oX X  o   .        ",
"           o .    XOo.O         ",
"        oX O O O .Xo oXX        ",
"        X#o oXoXooo.Xo.         ",
"        .     o o.X.o.          ",
"        O X#O@is.u O. o.        ",
"         oX .i-:;X;X.oX         ",
"        .X. ot;<32 , XX$        ",
"         oXop;3z16 ;O  o        ",
"        o..os,x431hX=#X         ",
"        Xo h;15a32ko;.OX        ",
"        .oot;32d=9r- =%X        ",
"          .w;2pe=4k= ,          ",
"         XOu-8*l;3u; -O         ",
"        o  k-24y=4j;OrX         ",
"        X.#g;24w-2a,Xe O        ",
"        #. d;3,g>2d*o4          ",
"          oq-62p=2s;o=          ",
"        ooXs-;1h;2k-O;X         ",
"          ok-241=k;X,.          ",
"        X . ->244p-X=o.X        ",
"           %a622s= = .oo        ",
"        o O  123k=X,o o         ",
"        oo  Ofah=X;X.oX         ",
"          Xoo+1=.u o. o.        ",
"         O.  OoXo X.o. .        ",
"        o    .o Ooo.Xo.X        ",
"        .o %#X . .XO  Xo        ",
"        XXo  .o X  Oo.o         ",
"         OO..     X#   .        ",
"        o XX o o $  o o         "
};
