/* XPM */
static char *golden_rotate_7_1737770105[] = {
/* columns rows colors chars-per-pixel */
"32 32 150 2 ",
"   c black",
".  c #010000",
"X  c #000100",
"o  c #010100",
"O  c #010101",
"+  c #030000",
"@  c #020100",
"#  c #000200",
"$  c #010200",
"%  c #000300",
"&  c #010300",
"*  c #000201",
"=  c #020200",
"-  c #030200",
";  c #020300",
":  c #000002",
">  c #010002",
",  c #000102",
"<  c #000103",
"1  c #010103",
"2  c #030002",
"3  c #030102",
"4  c #020003",
"5  c #000202",
"6  c #000302",
"7  c #000203",
"8  c #020202",
"9  c #040000",
"0  c #050000",
"q  c #040100",
"w  c #050100",
"e  c #060000",
"r  c #070000",
"t  c #050300",
"y  c #060300",
"u  c #040002",
"i  c #040003",
"p  c #050003",
"a  c #070002",
"s  c #070003",
"d  c #000400",
"f  c #000500",
"g  c #020400",
"h  c #000600",
"j  c #020700",
"k  c #050400",
"l  c #040500",
"z  c #000004",
"x  c #010004",
"c  c #000104",
"v  c #000005",
"b  c #010005",
"n  c #000105",
"m  c #030004",
"M  c #020005",
"N  c #030005",
"B  c #000205",
"V  c #000106",
"C  c #000007",
"Z  c #010007",
"A  c #020006",
"S  c #020106",
"D  c #030007",
"F  c #000207",
"G  c #030207",
"H  c #040004",
"J  c #050004",
"K  c #060004",
"L  c #070004",
"P  c #060005",
"I  c #070005",
"U  c #040006",
"Y  c #050006",
"T  c #000404",
"R  c #000405",
"E  c gray2",
"W  c #080000",
"Q  c #090000",
"!  c #0A0000",
"~  c #0F0100",
"^  c #0C0002",
"/  c #090500",
"(  c #080005",
")  c #090005",
"_  c #0A0104",
"`  c #080007",
"'  c #000900",
"]  c #000009",
"[  c #010009",
"{  c #010109",
"}  c #020008",
"|  c #030009",
" . c #020109",
".. c #000308",
"X. c #030208",
"o. c #020308",
"O. c #00000B",
"+. c #02000A",
"@. c #03000B",
"#. c #00020B",
"$. c #060009",
"%. c #040308",
"&. c #05000A",
"*. c #04000B",
"=. c #07000A",
"-. c #010409",
";. c #010609",
":. c #00040A",
">. c #01000D",
",. c #00040F",
"<. c #0A000A",
"1. c #0C0008",
"2. c #080E0A",
"3. c #000010",
"4. c #010010",
"5. c #000012",
"6. c #040013",
"7. c #000515",
"8. c #02071B",
"9. c #FDC700",
"0. c #FFC600",
"q. c #FEC700",
"w. c #FFC700",
"e. c #F8C900",
"r. c #FBCB00",
"t. c #FFC800",
"y. c #FDCB00",
"u. c #FFCA00",
"i. c #FECB00",
"p. c #FFCB00",
"a. c #FFCC03",
"s. c #FAC805",
"d. c #FFC904",
"f. c #FDCB0A",
"g. c #F5D200",
"h. c #FED001",
"j. c #FBD007",
"k. c #FFC411",
"l. c #FFC612",
"z. c #FBCD15",
"x. c #FAD01C",
"c. c #FFDC31",
"v. c #FFDC3D",
"b. c #FEE145",
"n. c #FFE751",
"m. c #F9EA5D",
"M. c #FCDC61",
"N. c #F8EF64",
"B. c #FFF6EF",
"V. c #FFFCF1",
/* pixels */
"                w >.d ( ;.d   4.4.  d ;.( d >.w                 ",
"                  R   (   F /     /     (   R                   ",
"                E         ( ! d d ! Y   Y     E                 ",
"                    %.F   _ w ;.;.l _   F %.                    ",
"                w    .  E   F 4.5.F   Y d ;.  w                 ",
"                w     F  .d ;.~ ~ ;.d F F     w                 ",
"                w   2.Y ( '   M.M.  ' ( Y 2.  w                 ",
"                F   d <.! d w h.a.w d ! <.d   F                 ",
"                  Y R d 1.4.  t.f.  d d    .Y d                 ",
"                F &.d   ( F d t.d.w F   w  .w                   ",
"                  Y F     '  .l.t.w F       w                   ",
"                d (    . .    r.9.! &.F d   w F                 ",
"                ' w w w    .&.a.s.w Y F d   w F                 ",
"                  Y Y w d l F b.x.            F                 ",
"                >.F 4.F 5.w d N.v.F     F   w F                 ",
"                  d   l   w 7.V.n.;.    w F w                   ",
"                  F   w   F 8.c.V.4.w R d 6.w Y                 ",
"                  F          .z.m.  ( d    .  w                 ",
"                  F   w       r.g.( w d w F R                   ",
"                  Y F w w l d t.9.*.d   =.  w                   ",
"                  Y d Y &.    t.l. .d   &.                      ",
"                    d    .  Y t.t.d  .F d   w                   ",
"                      w  .F   t.r.d  .  d d ! F                 ",
"                F F d   R     a.a. .~ w   d ! >.                ",
"                F   d <.! d ! h.h.! d ! <.d   F                 ",
"                Y   2.Y ( ' F M.M.  ' ( Y 2.  Y                 ",
"                  w   F F d ;.~ ~ ;.d  .    w w                 ",
"                w   ;.  Y     4.5.     .  ;.  w                 ",
"                    ;.    ! w ;.;.w (     ;.                    ",
"                E     Y   Y w d d w (   F     E                 ",
"                  F   (   F /     / F   <.  F                   ",
"                w >.l ( ;.d d 4.4.  d ;.( d  .w                 "
};
