/* XPM */
static char *golden_rotate_13_1737810644[] = {
/* columns rows colors chars-per-pixel */
"32 32 48 1 ",
"  c #010101",
". c #0A0103",
"X c #000900",
"o c #02010B",
"O c #0A020B",
"+ c #00080B",
"@ c #09090B",
"# c #130000",
"$ c #130009",
"% c #000013",
"& c #F3BF00",
"* c #E6CD00",
"= c #ECCC07",
"- c #F7C400",
"; c #FEC401",
": c #F7CB00",
"> c #FDCC02",
", c #FFC40B",
"< c #F6CF08",
"1 c #FBCC0A",
"2 c #F5D400",
"3 c #FED402",
"4 c #F4DB01",
"5 c #FDDB01",
"6 c #FED10C",
"7 c #F4DC0A",
"8 c #FEDA0B",
"9 c #FFD912",
"0 c #FEE400",
"q c #F6DF44",
"w c #FFDE4A",
"e c #FEDD54",
"r c #FDE444",
"t c #F3EA43",
"y c #F8E944",
"u c #F2E24F",
"i c #FBE44A",
"p c #FDE94D",
"a c #ECF043",
"s c #F5E255",
"d c #FEE454",
"f c #FFEB54",
"g c #F7E65A",
"h c #FEE45C",
"j c #F1EA5B",
"k c #FFE85C",
"l c #F1F89B",
"z c #FFECA9",
/* pixels */
"        X  oo  oo  o  oX        ",
"        o    oX  Xo    .        ",
"         ..  .   .. o.          ",
"        oXXo o.@. o o Xo        ",
"        XooooXoXXoX%.ooX        ",
"         o.   o  o   ..         ",
"        ..@%o$tiit$o%. .        ",
"         oX .y:,,:t.XXo         ",
"        o   k;35331wX.%         ",
"        .o..q;z553:3. Xo        ",
"        XoXh3l3>5558io.X        ",
"        o.Xe-302e5>:y.o.        ",
"        . g*533kp;55j;o         ",
"        X.d,39i;s:>3a3X         ",
"        X f:53>2h153i,.X        ",
"         od>3825r:83r:o         ",
"         oe:5343p;55d:          ",
"        .Xd:3493p&41p> o        ",
"        XXd;3334d>55s;.         ",
"         oi15654i;73f;.X        ",
"        Xo.:2235>:8r;O O        ",
"        o. <5534353f;XXo        ",
"        . o.i35326d-..X         ",
"          %.:d6535i1Xo .        ",
"        OXo #=iddi=# oXO        ",
"        X.X oX3-;3X  X.X        ",
"        .o. ..o..o.. ..         ",
"        .o o .XooXO o o.        ",
"        X%XXo ....XoXX%X        ",
"          .  XoX o  ..          ",
"        X.oO@X oo.X@oo.o        ",
"        .X  oo .  ooX X         "
};
