/* XPM */
static char *golden_rotate_10_1737810457[] = {
/* columns rows colors chars-per-pixel */
"32 32 199 2 ",
"   c black",
".  c #010000",
"X  c #000100",
"o  c #010100",
"O  c #030000",
"+  c #000200",
"@  c #010200",
"#  c #000300",
"$  c #000201",
"%  c #020300",
"&  c #030300",
"*  c #000002",
"=  c #010002",
"-  c #000102",
";  c #030102",
":  c #000202",
">  c #000302",
",  c #000303",
"<  c #040000",
"1  c #050100",
"2  c #060000",
"3  c #070000",
"4  c #050200",
"5  c #040301",
"6  c #070300",
"7  c #050003",
"8  c #060002",
"9  c #070002",
"0  c #000400",
"q  c #010400",
"w  c #000500",
"e  c #000401",
"r  c #020400",
"t  c #030400",
"y  c #000600",
"u  c #000700",
"i  c #000601",
"p  c #010602",
"a  c #040400",
"s  c #050600",
"d  c #000004",
"f  c #010004",
"g  c #000104",
"h  c #000005",
"j  c #010005",
"k  c #000105",
"l  c #030004",
"z  c #030005",
"x  c #010204",
"c  c #000205",
"v  c #000007",
"b  c #010007",
"n  c #000107",
"m  c #030106",
"M  c #020107",
"N  c #000207",
"B  c #030207",
"V  c #040004",
"C  c #060004",
"Z  c #070005",
"A  c #040205",
"S  c #040007",
"D  c #060107",
"F  c #000405",
"G  c #000606",
"H  c gray2",
"J  c #080000",
"K  c #090100",
"L  c #0A0000",
"P  c #090200",
"I  c #080002",
"U  c #090002",
"Y  c #080003",
"T  c #0F0100",
"R  c #0C0002",
"E  c #0D0002",
"W  c #090500",
"Q  c #080004",
"!  c #080005",
"~  c #090005",
"^  c #0A0104",
"/  c #0A0005",
"(  c #080007",
")  c #0C0006",
"_  c #000900",
"`  c #020800",
"'  c #000A00",
"]  c #020902",
"[  c #000B03",
"{  c #040A00",
"}  c #000009",
"|  c #010009",
" . c #020008",
".. c #030009",
"X. c #000308",
"o. c #000309",
"O. c #020308",
"+. c #00000B",
"@. c #00020B",
"#. c #040009",
"$. c #010609",
"%. c #00040A",
"&. c #03060B",
"*. c #02070B",
"=. c #00000C",
"-. c #00000E",
";. c #00020E",
":. c #07000D",
">. c #07000F",
",. c #07040D",
"<. c #0B0009",
"1. c #0A000A",
"2. c #0A000B",
"3. c #09010C",
"4. c #0F000D",
"5. c #01090C",
"6. c #080E0A",
"7. c #000010",
"8. c #000012",
"9. c #030012",
"0. c #000016",
"q. c #01011B",
"w. c #FFBD02",
"e. c #FDC300",
"r. c #FFC300",
"t. c #FBC700",
"y. c #FAC503",
"u. c #FFC401",
"i. c #FFC701",
"p. c #FFC603",
"a. c #F5C900",
"s. c #F4CB00",
"d. c #F2CF00",
"f. c #F6CE00",
"g. c #F5CE05",
"h. c #F8C900",
"j. c #FBCB00",
"k. c #FFC800",
"l. c #FBCD00",
"z. c #F9CF01",
"x. c #FBCF00",
"c. c #FCCC00",
"v. c #FECC00",
"b. c #FFCC00",
"n. c #FFCF01",
"m. c #FECF03",
"M. c #F9C907",
"N. c #FFCA05",
"B. c #FFCB05",
"V. c #FACC07",
"C. c #FFCD07",
"Z. c #FDC308",
"A. c #FDC10B",
"S. c #F8C60F",
"D. c #FFC70C",
"F. c #FACA08",
"G. c #FFC809",
"H. c #FFC80B",
"J. c #F7D100",
"K. c #F6D700",
"L. c #F8D300",
"P. c #FBD200",
"I. c #FED001",
"U. c #FFD300",
"Y. c #FFD600",
"T. c #FED104",
"R. c #FAD800",
"E. c #FFDA00",
"W. c #FDD60D",
"Q. c #FFC716",
"!. c #FFCC13",
"~. c #F8DD46",
"^. c #F5E341",
"/. c #FFE041",
"(. c #FFE546",
"). c #FBE844",
"_. c #FEE847",
"`. c #FCE148",
"'. c #FDE449",
"]. c #FFE548",
"[. c #FEE54A",
"{. c #F4EA4B",
"}. c #F6EC4F",
"|. c #FAE848",
" X c #FCE84B",
".X c #FFEC4F",
"XX c #EDE751",
"oX c #FFE452",
"OX c #FBE254",
"+X c #FEE354",
"@X c #FBE456",
"#X c #FFE757",
"$X c #FFE851",
"%X c #FFE853",
"&X c #FBEA54",
"*X c #FEEA57",
"=X c #FDE65C",
"-X c #F9EA59",
";X c #FCDC61",
/* pixels */
"                8 @.r / $.    9.9.r r $./ r ;.8                 ",
"                  G   /     W     W     /   v                   ",
"                H     8   V K r r K V   v   r H                 ",
"                    $.v   ^ 8 *.$.8 /     $.                    ",
"                8   G   $.    9.9.    v r $.  8                 ",
"                  8   v v r $.T T 5.r v v     8                 ",
"                8   6.v / _   ;X;X  _ / v 6.  8                 ",
"                v   r 1.K r 8 I.I.8 r K 1.r   v                 ",
"                v V r     v _.;.D.i.r T [ r :.                  ",
"                    @.@.3./ /.K s.z.@.;.8 8 v _                 ",
"                  v r r 8 XXc.{.K j.c.@.;.r K 8                 ",
"                  v r ,.8 &Xp.(.v V.w.V K   v 8                 ",
"                O.    @.  +XU.$Xk.G L.i.  5.a                   ",
"                O.a   O.   XW.OXI.V j.!.r / v G                 ",
"                O.  r V r %XK.#XA.{ ~.F.a   r a                 ",
"                v r v K ;.(.R.+Xf.  '.'.v   8 v                 ",
"                8 _ >.  8 -XT.}.c.  G.).8 G @.                  ",
"                r G       `.E.+XA.{ S.j./     r                 ",
"                1._ T _ @. XP.=XI.K z.B.r v 9.                  ",
"                )   K   v |.U.[.s.  d.r.  G K _                 ",
"                r   r 5.0.k.%Xp./ B.Q.8 $.  r 4.                ",
"                v   a   v F.^.J.  i.y.  $.v 8 r                 ",
"                8 K r / 1.  C.8 p.J.@.q.8 8                     ",
"                ;.  r 8   v z.;.H.j.  K _ / v r                 ",
"                v   r <.K r 8 I.I.K r K 1.r   v                 ",
"                8   6.v / _   ;X;X  _ / v 6.  8                 ",
"                8     v v r $.T T $.r v   r 8 8                 ",
"                8   $.  H     0.0.    @.  $.  8                 ",
"                    $.    / 8 $.$.8 K   v $.                    ",
"                H r   v   8 8 r r 8 V   V     H                 ",
"                  v   1.r   a     W   r V   G                   ",
"                8 ;.r V $.r r 9.9.    *./ r @.8                 "
};
