/* XPM */
static char *golden_rotate_1_1737766901[] = {
/* columns rows colors chars-per-pixel */
"32 32 210 2 ",
"   c black",
".  c #010000",
"X  c #000100",
"o  c #010100",
"O  c #030000",
"+  c #000200",
"@  c #010200",
"#  c #000300",
"$  c #010300",
"%  c #000201",
"&  c #030200",
"*  c #020300",
"=  c #000002",
"-  c #010002",
";  c #000102",
":  c #030102",
">  c #020003",
",  c #000202",
"<  c #000302",
"1  c #040000",
"2  c #040100",
"3  c #050100",
"4  c #050001",
"5  c #060000",
"6  c #070000",
"7  c #050300",
"8  c #060201",
"9  c #040002",
"0  c #050003",
"q  c #040203",
"w  c #000400",
"e  c #000500",
"r  c #020400",
"t  c #000600",
"y  c #010700",
"u  c #000403",
"i  c #040400",
"p  c #040700",
"a  c #000004",
"s  c #010004",
"d  c #000104",
"f  c #000005",
"g  c #010005",
"h  c #000105",
"j  c #030004",
"k  c #030005",
"l  c #000204",
"z  c #000304",
"x  c #000205",
"c  c #000305",
"v  c #020204",
"b  c #000007",
"n  c #010007",
"m  c #000107",
"M  c #000306",
"N  c #030207",
"B  c #020307",
"V  c #040005",
"C  c #060004",
"Z  c #060007",
"A  c #070007",
"S  c #050306",
"D  c #040207",
"F  c #000404",
"G  c #000407",
"H  c #020607",
"J  c gray2",
"K  c #040605",
"L  c #080000",
"P  c #0A0000",
"I  c #0B0000",
"U  c #090200",
"Y  c #080002",
"T  c #0E0000",
"R  c #0F0100",
"E  c #090500",
"W  c #0D0400",
"Q  c #080004",
"!  c #080005",
"~  c #090005",
"^  c #0A0004",
"/  c #0A0104",
"(  c #0A0005",
")  c #080006",
"_  c #080007",
"`  c #0A0106",
"'  c #000800",
"]  c #000900",
"[  c #000801",
"{  c #000A00",
"}  c #000804",
"|  c #000009",
" . c #010009",
".. c #000109",
"X. c #010109",
"o. c #020008",
"O. c #000308",
"+. c #020308",
"@. c #01000A",
"#. c #00010A",
"$. c #00000B",
"%. c #03000B",
"&. c #00020A",
"*. c #00020B",
"=. c #060108",
"-. c #050209",
";. c #05020B",
":. c #010508",
">. c #010609",
",. c #00040A",
"<. c #05040A",
"1. c #00000C",
"2. c #02020C",
"3. c #00000E",
"4. c #06000C",
"5. c #080009",
"6. c #09000B",
"7. c #0A000A",
"8. c #0C010F",
"9. c #00080A",
"0. c #00080F",
"q. c #080E0A",
"w. c #000010",
"e. c #000311",
"r. c #000012",
"t. c #000113",
"y. c #000212",
"u. c #000711",
"i. c #020413",
"p. c #040217",
"a. c #000415",
"s. c #090011",
"d. c #0D0012",
"f. c #FDC200",
"g. c #F8C700",
"h. c #FBC600",
"j. c #FFC600",
"k. c #FEC700",
"l. c #FFC700",
"z. c #FCC602",
"x. c #FDC703",
"c. c #FFC603",
"v. c #FFC104",
"b. c #FBC405",
"n. c #FCC705",
"m. c #FFC604",
"M. c #FFC704",
"N. c #FACB00",
"B. c #FCC900",
"V. c #FFC800",
"C. c #FFC900",
"Z. c #FFCA00",
"A. c #FFCB00",
"S. c #FACC00",
"D. c #FBCC00",
"F. c #F8CF03",
"G. c #FFCD00",
"H. c #FDCF00",
"J. c #FFCC02",
"K. c #FEC806",
"L. c #FFC50B",
"P. c #FFC40C",
"I. c #F5C908",
"U. c #F3CA0C",
"Y. c #FFCA09",
"T. c #FFC90A",
"R. c #FECE08",
"E. c #FCCB0F",
"W. c #F7D600",
"Q. c #FCD000",
"!. c #FED001",
"~. c #FFD200",
"^. c #F9D500",
"/. c #FAD606",
"(. c #F4D903",
"). c #FFD900",
"_. c #F8DE00",
"`. c #FCDC00",
"'. c #F8D10A",
"]. c #FED008",
"[. c #FFDA0E",
"{. c #FFDE49",
"}. c #FFDD55",
"|. c #F6E746",
" X c #F8E241",
".X c #FFE241",
"XX c #FFE243",
"oX c #FAE441",
"OX c #FEE147",
"+X c #FFE347",
"@X c #F0EB47",
"#X c #FCE14A",
"$X c #FFE34A",
"%X c #FFE448",
"&X c #FCE04E",
"*X c #FFE74E",
"=X c #F6E94F",
"-X c #FBE94B",
";X c #FEEA49",
":X c #FDE352",
">X c #FAE651",
",X c #FAE453",
"<X c #FFE753",
"1X c #FBEA52",
"2X c #FFEA50",
"3X c #FEE857",
"4X c #FFE25C",
"5X c #FFE65E",
"6X c #FFE858",
"7X c #FCDC61",
/* pixels */
"                2 @.r ) ,.r   t.3.r r ,.) r @.2                 ",
"                  G   ) r   E     E     )   v                   ",
"                J     v   V U r r U V   v     J                 ",
"                    @.v   ) 2 ,.,.8 )   v <.                    ",
"                2   @.  <.    t.t.    ,.  ,.  2                 ",
"                2   r v v r ,.R R ,.  v v r   2                 ",
"                V   q.v ) {   7X7X  { ) v q.  V                 ",
"                v     7.U r 2 !.!.U r U 7.    v                 ",
"                  U @.} 2 r C.S.r ;X2   G V r @.                ",
"                v     U u.@.R.n.) }.U =.@.v   2                 ",
"                @.r 3.p.,.C.f.{ =XU.@XV r ) v                   ",
"                U { @.U   c.H.  +XE.-X2   2 J =.                ",
"                {   @.R c.S.t.%XH.!.:X<.3.8                     ",
"                U   { r T.^.v *Xg.[.+X@.r     u.                ",
"                2 { 2 d.g.{.{ #XC._.4X  v =.2 G                 ",
"                %.    @.+X<X  5XP.W..Xu.  7.2                   ",
"                  V G 2 |.L.  1Xc./.,X2 2 v 2 G                 ",
"                ,.    W S.n.r >XH.`.{.{ U r 7.                  ",
"                U s.  G N.J.6.2Xc.^.6Xv J V r                   ",
"                { ) 2 @.H.I.=. Xn.`.&Xv   v V r                 ",
"                d.{   r   H.n.v c.3XC.a.%.r V r                 ",
"                v   3.r <.g.f.{ '. XS.r G U   3.                ",
"                  v   ) t.@.R.b.U K.2 7.@.r ) r                 ",
"                  v U 9.2 r n.H.0.c.v   V   J                   ",
"                v   r 6.U r U !.H.U r U 7.r   v                 ",
"                V   q.v ) {   7X7X  { V v q.  V                 ",
"                2 2   v @.r ,.R R 0.r v v   2 2                 ",
"                2   ,.  v     t.t.  r @.r @.  2                 ",
"                    ,.    U 2 ,.@.2 )   v @.                    ",
"                J     V   ) 2 r r 2 )   v     J                 ",
"                  v   7.r v E     E   r )   v                   ",
"                2 @.r V ,.r   3.t.  r ,.) r 3.2                 "
};
