/* XPM */
static char *Full_1_1738331130[] = {
/* columns rows colors chars-per-pixel */
"32 32 69 1 ",
"  c #010101",
". c #0A0402",
"X c #0D0804",
"o c #02030A",
"O c #09050A",
"+ c #000A0F",
"@ c #0B0B0B",
"# c #120601",
"$ c #150C04",
"% c #1A0E06",
"& c #120D0A",
"* c #180F0A",
"= c #14110E",
"- c #1A120B",
"; c #000410",
": c #180C12",
"> c #181715",
", c #5F432B",
"< c #5F4E3A",
"1 c #614226",
"2 c #63452C",
"3 c #6B402F",
"4 c #63492F",
"5 c #684A2E",
"6 c #744E2D",
"7 c #654534",
"8 c #6F4433",
"9 c #674933",
"0 c #6B4D34",
"q c #6B443D",
"w c #6A4E39",
"e c #724F34",
"r c #7A4E33",
"t c #6F5134",
"y c #64533F",
"u c #6D523C",
"i c #745134",
"p c #7D5235",
"a c #74543B",
"s c #7C5A3E",
"d c #6E5541",
"f c #6F5942",
"g c #715641",
"h c #755943",
"j c #7D5D44",
"k c #665D56",
"l c #65615E",
"z c #805336",
"x c #835639",
"c c #8B5139",
"v c #845A3B",
"b c #895C3B",
"n c #91633F",
"m c #805D41",
"M c #8D5E40",
"N c #836146",
"B c #8C6242",
"V c #826249",
"C c #8C664A",
"Z c #8E6A4E",
"A c #916444",
"S c #936846",
"D c #926D4C",
"F c #966D51",
"G c #9C7854",
"H c #9D7A5E",
"J c #A47E5F",
"K c #A8805C",
"L c #AF8C70",
/* pixels */
"     ..       .  .        . o . ",
"       @.&>=@=&=*-&&@&&.@   o . ",
"   oo @Xsiaeah0sh9hauhua%+  o   ",
".    O*gpBmVFZDCSBCZnnnbd-@    O",
" O  @#htk..X . . o  O .lau$X  O ",
"    #uaj     o     .    aiw&    ",
"o. o.me.... . ..X .  ....6j  .  ",
" . ;Xrh    o       o    omiOo.  ",
"    .aj                  Va.    ",
"    .aj                  VaX    ",
"    .aj                 .VaX    ",
"    Xaj                  VaX    ",
"    Xaj                  Va.    ",
"    Xam                  VwX    ",
"    Xaj                  maX    ",
"    .aj                  jaX    ",
"  .oXuV.                 aaX    ",
"  .  ,j                  t0Xo   ",
"    =49                  50Xo   ",
"   oX,9O                o00Xo.  ",
".   &21                  50@o  O",
"  o #JL                 .KH& .o ",
"   o$CJ                  GF*    ",
"..  %FJ.                .JD$  o ",
"  o @25                  51.oo .",
"    =99 .   .            ww:    ",
"XO  &29oo                aw&o ..",
"   o=90         .       .g0&o   ",
"   o@9f o                fd@    ",
"  . @w6.   .  ... .     #t9& .  ",
";o  :8c7przxbbAAAbbvzprrqc3:  o;",
". . o .+                +..+ . ."
};
