/* XPM */
static char *Full1738331082[] = {
/* columns rows colors chars-per-pixel */
"32 32 113 2 ",
"   c #010102",
".  c #0C0401",
"X  c #060A07",
"o  c #090806",
"O  c #000409",
"+  c #050B0A",
"@  c #0B0B0A",
"#  c #100300",
"$  c #110904",
"%  c #190B01",
"&  c #130D0A",
"*  c #0A100C",
"=  c #1C1004",
"-  c #12110F",
";  c #191009",
":  c #0F0F11",
">  c #110F12",
",  c #121213",
"<  c #6D3924",
"1  c #6F411D",
"2  c #754F1E",
"3  c #5E4423",
"4  c #5E482B",
"5  c #624326",
"6  c #6D4222",
"7  c #66422A",
"8  c #6B462D",
"9  c #654C2D",
"0  c #6B492D",
"q  c #774927",
"w  c #73462B",
"e  c #754A2D",
"r  c #7A4C2D",
"t  c #6D502E",
"y  c #7B532D",
"u  c #674730",
"i  c #6A4431",
"p  c #654830",
"a  c #6D4B32",
"s  c #624F3E",
"d  c #6E4A3C",
"f  c #734634",
"g  c #744D32",
"h  c #7A4E33",
"j  c #754539",
"k  c #744E3B",
"l  c #7B4C3A",
"z  c #655139",
"x  c #6E5239",
"c  c #745434",
"v  c #7C5234",
"b  c #75533A",
"n  c #7C553A",
"m  c #76583E",
"M  c #7C5A3C",
"N  c #6A4E45",
"B  c #784C43",
"V  c #645345",
"C  c #6B5543",
"Z  c #6D5941",
"A  c #685648",
"S  c #6C594A",
"D  c #755344",
"F  c #785341",
"G  c #7D5D42",
"H  c #725D4C",
"J  c #81512E",
"K  c #84592E",
"L  c #8A5A2C",
"P  c #834D35",
"I  c #835535",
"U  c #885735",
"Y  c #855936",
"T  c #8A5B36",
"R  c #82563A",
"E  c #885739",
"W  c #855A3B",
"Q  c #8A5C3C",
"!  c #905E3B",
"~  c #8B6234",
"^  c #8E623C",
"/  c #92633E",
"(  c #9B653F",
")  c #835642",
"_  c #815D42",
"`  c #8B5E41",
"'  c #836143",
"]  c #8D6142",
"[  c #816349",
"{  c #886648",
"}  c #8F6849",
"|  c #926543",
" . c #996642",
".. c #956846",
"X. c #996B47",
"o. c #95664A",
"O. c #93694A",
"+. c #9C6D4B",
"@. c #9C7355",
"#. c #A07555",
"$. c #A47B5E",
"%. c #A27E64",
"&. c #A78265",
"*. c #A7856A",
"=. c #D9AE50",
"-. c #DAAC5E",
";. c #DABC54",
":. c #DCB45C",
">. c #E0B455",
",. c #E4B85F",
"<. c #DEBF6F",
"1. c #E7C059",
"2. c #EAC56D",
/* pixels */
"                                                                ",
"              X X @ , , , , , @ - - - - , : X X O               ",
"O O       . . & b b b b b b b b b b c g g b b m = $             ",
"          @ % V _ _ ` O.O.O.} } ] O.O.O.] ] ] Q V % . .     O   ",
"        . # C D b a a 8 7 7 0 5 g c 8 g a g b m Z H % @         ",
".       . S m M v v Q Y v Q ` q I Y q Q Q I e w g b C .         ",
"    O   . S 0 6 R I ) Y e W ] w W Q w W ] W v W v b Z .         ",
"        $ z G r Q h Q E h Y ] e W ^ q Q ` I e W q { C $         ",
"        o k M h Y h Q Q g Y / v Q Q e Q / R w | I ' b @         ",
"        @ k _ h ^ g Y / g R Q I Q Q g Q ^ Y f / Q { b o         ",
"    O   o b _ l | h I Q g W U R W | h Q ^ Q h / Y { b o         ",
"        @ b _ v Y g R ! g ` Y n Y / v Q T I g ^ h _ v O         ",
"    O   O v _ v I f I Q g ` I R T ] I ] ~ R g / I ' n O   O     ",
"        o k _ v W e I | g ` I W T } W X./ Q h / Q ' c .         ",
"        O v [ n ^ f Y / g ] Y W Y ^ v ] T W h ^ | _ b o   O     ",
"        o v ' R ] e ^ / h | Q v Q | I W K W R / ` M b @         ",
"        + t [ I / v ! ( I X.Q M ~ ^ F Q ) -.q o.| b b +         ",
"    .   O a G e / v / ( v  .! v f ^ I y >.;.,.I W a a @   .   O ",
"        @ 5 p n | v | ( r | ! v T ~ l :.f 1 j 2.e a g O         ",
"  X   . * 0 9 n / v |  .h ..! e E U 2 ,.f r i ;.M 9 a :         ",
"        o 8 i w Q v ] / g o.! v Q ` P f =.<.2.e 8 a h @         ",
"        @ @.*.v Q v Q Q e O./ Y Y Q h ` r v e W v %.@.@   O     ",
"X       & +.&.y ` v Q U g | / W W E y ! _ L l Q q $.+.$       . ",
"        &  .$.Y ! n Q U h | Q T _ Y J ^ E _ Y W I $.+.$         ",
"        X 0 4 n v I T T v | Q U Q Q h Q Y W v Q c 4 3 *         ",
"        @ 8 u h T v W W e ] R I ..Q h | W T e n h b i ,         ",
"        , a d j W h W W v ] I Q X.Q q ] ] T g W f D 8 ,     .   ",
".       + 5 z a W h ` W r W v ` ..Q g _ W W h R 8 Z 9 @         ",
"      . * t x 0 Y q Q Y J U J / T U r T T Q Y Q 0 Z c @         ",
"  O     * e b < b 8 a 8 0 a 8 g w f 8 g a g 8 a < f h o .       ",
"        , 8 N d g h h v Q } ] ] Q ] ) Q I v h g D N u ,         ",
"        O .         .   .     .     .         O .   . O       . "
};
