/* XPM */
static char *MINION_4_3_1737993067[] = {
/* columns rows colors chars-per-pixel */
"32 32 95 2 ",
"   c #010000",
".  c #0A0101",
"X  c #000A02",
"o  c #0C0904",
"O  c #02020B",
"+  c #0C010A",
"@  c #06090E",
"#  c #150000",
"$  c #190100",
"%  c #101F08",
"&  c #070012",
"*  c #16141A",
"=  c #1E161D",
"-  c #1A1B1D",
";  c #211114",
":  c #211B1B",
">  c #1B1522",
",  c #221423",
"<  c #5A1F17",
"1  c #561A1A",
"2  c #5B1E1B",
"3  c #611611",
"4  c #6B1C15",
"5  c #66161F",
"6  c #641D1C",
"7  c #5D2116",
"8  c #522319",
"9  c #5C241C",
"0  c #632113",
"q  c #64211B",
"w  c #69241F",
"e  c #521E22",
"r  c #5E1F28",
"t  c #651724",
"y  c #631A23",
"u  c #6B1A22",
"i  c #6D152D",
"p  c #611D28",
"a  c #6D1C2A",
"s  c #5B2222",
"d  c #542128",
"f  c #5A252C",
"g  c #622222",
"h  c #62222A",
"j  c #6C2529",
"k  c #702126",
"l  c #82204F",
"z  c #812358",
"x  c #F70142",
"c  c #F3064A",
"v  c #FF024B",
"b  c #F40151",
"n  c #FF0051",
"m  c #8E795C",
"M  c #997D56",
"N  c #92765E",
"B  c #9A765B",
"V  c #917B5C",
"C  c #9B7763",
"Z  c #A27965",
"A  c #87825A",
"S  c #908158",
"D  c #DDDEBF",
"F  c #E9D7BB",
"G  c #E6DDBA",
"H  c #EDDEBF",
"J  c #F3DEBB",
"K  c #FCDEBC",
"L  c #ECE1BD",
"P  c #E5DCC3",
"I  c #EDDFC4",
"U  c #EBDDCD",
"Y  c #F1DEC6",
"T  c #F8DFC0",
"R  c #F0D3CD",
"E  c #FED3CD",
"W  c #F4D9CA",
"Q  c #FCDFCD",
"!  c #E3DCD6",
"~  c #EDDDD1",
"^  c #F1D5D1",
"/  c #F2DCD1",
"(  c #F8D9D4",
")  c #E5E3C4",
"_  c #EDE5C4",
"`  c #E3E2CA",
"'  c #EBE2CB",
"]  c #F3E3C5",
"[  c #F2EAC3",
"{  c #F2E4CB",
"}  c #F9E0CA",
"|  c #F2ECCA",
" . c #E6E4D8",
".. c #F3E5D2",
"X. c #FBE5D0",
/* pixels */
"                                                                ",
"                                                                ",
"                                                                ",
"                                                                ",
"                                                                ",
"                                                                ",
"                                                                ",
"                                                                ",
"                      . .     X O     o +   X       .   .       ",
"                O   X     & O   . . X   X +   O     O       X   ",
"                O       .     + X     @   O .   +   X         . ",
"                & . .     . X   &   +         X               . ",
"                  . O O   ` _ ~ [ ' E     + . O . . . .       X ",
"                X . .   C K ' - * % = J   ` O     X             ",
"                O   _ S m X ; b : > x > ] . 9 s . o     @   . . ",
"                u s 9 ) / + = v l z c , ) X 3 h r d #   X       ",
"+ X       . f 6 s t < q U   k > v n * s )   s < g 9 g   . O     ",
"  .   .   f 1 w 7 q [ P ' X.  V s B i S y O ^ ' J P W           ",
"  O     . ..H H ' F / _       U   / # ] 7 . | J ' ] ] P   X O O ",
". X @ . R D ] I P Q I G . f     o O X   5   e q 6 r a     .     ",
"X   .   . k 9 f s 0 '   A 6 . ~   _ O ' p + ..y u s 6 2 j     & ",
"  .   f 5 8 6 2 5 W X & m s q I 9 { 4 ` X     ] G | q h 9 f .   ",
"+ . a s 6 9 } Y _ O . .   Z V B C C M .   + +   .   ! ..F I ... ",
"  ' L ] )  ..         X O .   X       O O   . X . X .   $ X   O ",
"                                                                ",
"                                                                ",
"                                                                ",
"                                                                ",
"                                                                ",
"                                                                ",
"                                                                ",
"                                                                "
};
