/* XPM */
static char *MINION_41737992830[] = {
/* columns rows colors chars-per-pixel */
"32 32 95 2 ",
"   c #010101",
".  c #0A0002",
"X  c #010903",
"o  c #03010A",
"O  c #0B040A",
"+  c #07080D",
"@  c #140000",
"#  c #1E160E",
"$  c #000010",
"%  c #000813",
"&  c #0C1713",
"*  c #161614",
"=  c #1C1413",
"-  c #17161B",
";  c #161C1C",
":  c #1D1D1B",
">  c #19162B",
",  c #221421",
"<  c #591C16",
"1  c #5F1D1F",
"2  c #611C13",
"3  c #6A1D13",
"4  c #641C1D",
"5  c #6B1B1C",
"6  c #5E2514",
"7  c #54231F",
"8  c #5A231B",
"9  c #622415",
"0  c #63241C",
"q  c #541C21",
"w  c #5C1D25",
"e  c #621D25",
"r  c #691E25",
"t  c #631A2B",
"y  c #701B22",
"u  c #552222",
"i  c #5E2223",
"p  c #55232C",
"a  c #5D222A",
"s  c #652222",
"d  c #612229",
"f  c #73232A",
"g  c #7C214A",
"h  c #89215C",
"j  c #FF034E",
"k  c #F30050",
"l  c #FF0054",
"z  c #FF0258",
"x  c #8F765C",
"c  c #8F7F5D",
"v  c #947755",
"b  c #927B54",
"n  c #997857",
"m  c #94745C",
"M  c #947C5A",
"N  c #98795A",
"B  c #A17751",
"V  c #A0795A",
"C  c #8F7662",
"Z  c #857E61",
"A  c #8E7B60",
"S  c #9B7C67",
"D  c #937569",
"F  c #917C69",
"G  c #8F7679",
"H  c #A27B62",
"J  c #8F815C",
"K  c #8D8462",
"L  c #8D806F",
"P  c #9A8067",
"I  c #97836B",
"U  c #EDDBB7",
"Y  c #E5DCBD",
"T  c #EADEBE",
"R  c #E3E6B9",
"E  c #E9E3BF",
"W  c #F3E2B6",
"Q  c #E3DCC4",
"!  c #EDDDC5",
"~  c #E6DACA",
"^  c #EBDDCC",
"/  c #F5DDC3",
"(  c #F9DFC3",
")  c #F3D6C8",
"_  c #F5DBCA",
"`  c #F2DFD0",
"'  c #F9DFD0",
"]  c #E1E4C7",
"[  c #ECE2C3",
"{  c #E7E6C8",
"}  c #EDE1CD",
"|  c #EFE8CB",
" . c #F0ECC7",
".. c #F2E0C9",
"X. c #F3E0D1",
/* pixels */
"                                                                ",
"                                                                ",
"                                                                ",
"                                                                ",
"                                                                ",
"                                                                ",
"                                                                ",
"                                                                ",
"X   .               o   o     o O     X       o           .   X ",
"O   _ ..{ [ ! ! T X X   .   o X   X . . . X   [ / ! [ { ..X.  O ",
"o O a < 4 0 5 [ T _ ~     X o   o X o X   Q ! W } 5 0 4 < w O o ",
". X X f 1 u i 4 d Y X O .   X . O     O . X ^ e 4 i 7 1 f X X . ",
"    X     w r 8 E [ .   X % o X   o   o   . } ! 8 r w     X     ",
"o . O   X f ! / B I   O O   o   X     o X   K N / T f X . o . o ",
"  X   X ! U c v e t q .   A ( [ ! ( ~   O q r w v b U Q X   X   ",
". X   ^ S c r w s 4 0 J J ) _ ; ; = , ] @ 8 e 6 a y c S ~   X O ",
"    . G .   . p d 2 p D E [ - l > = z # }   i 3 p   X . G . X   ",
"  X   .   X   @   9 m V ( T : l g h k * / O w o @       .   X   ",
"  .   o o X       N v c ' R 0 & j l # 4 |   H X     X +     . o ",
"  o   X       X N d   c ! 5 e F 9 D 0 M < . s N         X       ",
"X         .   X b   O m W w . [ X | o } a O   C X   .         o ",
"      X   . .   O     S ! e o   .     . < . o     . .   X       ",
"    .       O   o X . x K i o _   } X Q 2 X   +   O       O     ",
"  .     X     o   . o . m 6 u _ 0 _ w W o   o   o   o X       X ",
"                o o o   . F x M M A F .   o o o                 ",
"                      X     . . . .           .                 ",
"                        . o +   o + o                           ",
"                .   o   o X         X   o   .                   ",
"                  o o   O             o   o   o                 ",
"                  X         .     O                             ",
"                        X     o         X                       ",
"                o o .             X       o   o                 "
};
