/* XPM */
static char *MINION_4_1_1737992940[] = {
/* columns rows colors chars-per-pixel */
"32 32 106 2 ",
"   c #010101",
".  c #0A0101",
"X  c #010903",
"o  c #02030A",
"O  c #0A040B",
"+  c #030A0B",
"@  c #0C0C0C",
"#  c #100000",
"$  c #1C0002",
"%  c #0B0014",
"&  c #141C11",
"*  c #181914",
"=  c #1A1A1B",
"-  c #251216",
";  c #281214",
":  c #142110",
">  c #182217",
",  c #1D1E20",
"<  c #260F23",
"1  c #2A1621",
"2  c #5C1D0B",
"3  c #4E1B18",
"4  c #5B151F",
"5  c #5C1E1F",
"6  c #651D14",
"7  c #6F1C16",
"8  c #651E1A",
"9  c #6A1C1D",
"0  c #4D221C",
"q  c #582216",
"w  c #54231E",
"e  c #5E231C",
"r  c #632415",
"t  c #64231E",
"y  c #561B21",
"u  c #5C1C22",
"i  c #5F1F2D",
"p  c #5D1C30",
"a  c #671722",
"s  c #671C21",
"d  c #681C25",
"f  c #6A192A",
"g  c #661D30",
"h  c #562123",
"j  c #5A2625",
"k  c #592821",
"l  c #5E2128",
"z  c #5D2C30",
"x  c #632324",
"c  c #6B2324",
"v  c #64222C",
"b  c #7A254E",
"n  c #7C2552",
"m  c #7F7A76",
"M  c #F7054A",
"N  c #FF0054",
"B  c #9A774F",
"V  c #946F5C",
"C  c #86755B",
"Z  c #8A7E58",
"A  c #9B7B55",
"S  c #9F7358",
"D  c #957A5A",
"F  c #9E7D5C",
"G  c #8D7960",
"H  c #9B7562",
"J  c #967B61",
"K  c #9E7965",
"L  c #957E6E",
"P  c #96825F",
"I  c #8D806F",
"U  c #958163",
"Y  c #E4DEBB",
"T  c #EBDDBD",
"R  c #F3DDBD",
"E  c #E9E2B4",
"W  c #E0E1BF",
"Q  c #ECE1BF",
"!  c #E7E9BA",
"~  c #E7D9C4",
"^  c #ECDBC6",
"/  c #E4DACE",
"(  c #EDDDCB",
")  c #F2D7C2",
"_  c #F3DCC4",
"`  c #F8D9C7",
"'  c #F1D3C9",
"]  c #FFD7CD",
"[  c #F3DDCC",
"{  c #EEDBD3",
"}  c #F7D5D6",
"|  c #F4DFD5",
" . c #DFE3CA",
".. c #E5E3C2",
"X. c #EDE2C6",
"o. c #E1E8C6",
"O. c #E2E2C8",
"+. c #EBE2CA",
"@. c #F1E3C3",
"#. c #F8E0C4",
"$. c #F1E2CA",
"%. c #F8E1CF",
"&. c #F1EBCB",
"*. c #EDE4D3",
"=. c #F2E3D3",
"-. c #FBE4D2",
/* pixels */
"o o                                                 .       o o ",
".   X o                                                     . X ",
"  +     O   o .       O                 O       . o         +   ",
"X               +                       o     X       o o     X ",
"  } -.R R +.#       +   O             O   +     X # $.R R =.}   ",
"    h s t t +.[ | #         X               . | ( +.t t t 5     ",
"o O   x d 0 u v k ' .                     . ' k v u 0 s l   O o ",
"      X . j t 6 8 w |   o         o   o   =.w 8 6 t j . X       ",
"  o     ( _ X.+.[ T @.%.  % +     o o   $.Q ^ [ ( $._ +..     o ",
".   o     +.X.....^ ! ^ X X     O   o + ~ @.&.Y Q X.+.    o   . ",
"      o . h 8 7 r x  .] [ +.      X R _ #.) r d 7 8 0 #         ",
"        . $ h x 5 4 x 9 =.  . o     o +.p x 3 t l h $   o       ",
"X         X     f c 8 ~  ..           *.E 9 z l             o   ",
"      .     o   k T X.P J   %.{ X.` ..  J T T t   O     X       ",
"o           X *.R J V 6 U ~ +.: < * , _   F K ` *.              ",
"        o   _ D Z x 9 x +.X.* N = = M ; =.X j D D ( .     o     ",
"            m .     l D $.$.; N n n N 1 Q o     X L .           ",
"        .     .   O X A ~ +.w & N M > u @..       o             ",
"                  .   S { q a L d H y H t X .                   ",
"            X   O     P +.2   ( . O.X +.t                       ",
"              o       F ( 8 .   .       t O   . o               ",
"      o     @   O   . C o.k     o   o   h         @     O       ",
"o               o     . D 9 X (   ( . | d . o                 o ",
"      X       X   . X . K u q @.r ! g Y   X o                   ",
"                o o o   . L C D D C L .   o o o                 ",
"                .           . . . .           .                 ",
"                          o O   o @ o                           ",
"                  o   o o               o                       ",
"                  o     +             +   o                     ",
"                            .     .                             ",
"                                                                ",
"                o   o                     o   o                 "
};
