/* XPM */
static char *MINION_4_2_1737992998[] = {
/* columns rows colors chars-per-pixel */
"32 32 97 2 ",
"   c #010101",
".  c #0A0201",
"X  c #000800",
"o  c #0A0900",
"O  c #030309",
"+  c #0A030C",
"@  c #100001",
"#  c #110209",
"$  c #0E1A18",
"%  c #191313",
"&  c #161D15",
"*  c #1C141C",
"=  c #171B1A",
"-  c #1D1C1A",
";  c #230E1D",
":  c #22131A",
">  c #231D1D",
",  c #1D0D28",
"<  c #581F14",
"1  c #5D1C18",
"2  c #651E14",
"3  c #562016",
"4  c #5D2317",
"5  c #54231F",
"6  c #5B211C",
"7  c #612117",
"8  c #692017",
"9  c #61221B",
"0  c #611F23",
"q  c #661C29",
"w  c #641A31",
"e  c #562224",
"r  c #5D2123",
"t  c #662223",
"y  c #7D2346",
"u  c #812652",
"i  c #FC0345",
"p  c #FD034C",
"a  c #FF0155",
"s  c #8E7758",
"d  c #917752",
"f  c #997754",
"g  c #9A7759",
"h  c #94795B",
"j  c #8B7963",
"k  c #8E7D6C",
"l  c #967B65",
"z  c #9A7B67",
"x  c #97766D",
"c  c #8E8455",
"v  c #8E8065",
"b  c #96816E",
"n  c #DFDFBD",
"m  c #E7DEB5",
"M  c #E6DDBA",
"N  c #EBDDBD",
"B  c #F0DDB5",
"V  c #F9DDB6",
"C  c #F3DCBC",
"Z  c #DBE4B9",
"A  c #E9E3B1",
"S  c #E6E1BC",
"D  c #EDE1BE",
"F  c #F6E0B7",
"G  c #F1E3BD",
"H  c #E7D7C7",
"J  c #E9D7C1",
"K  c #E5DDC3",
"L  c #ECDDC3",
"P  c #EDD7CA",
"I  c #E5DFCB",
"U  c #ECDECA",
"Y  c #F3DFC3",
"T  c #FBDCC4",
"R  c #F3DBCA",
"E  c #F9DEC9",
"W  c #E5DCD1",
"Q  c #EADED2",
"!  c #F1DCD1",
"~  c #F0D5DE",
"^  c #E5E1C3",
"/  c #EDE1C4",
"(  c #E7E1CD",
")  c #ECE3CA",
"_  c #E6E9CA",
"`  c #EDE8CC",
"'  c #F1E2C5",
"]  c #F8E1C4",
"[  c #F3E9C6",
"{  c #F2E3CB",
"}  c #FBE3C9",
"|  c #F6E9C9",
" . c #E4E3D3",
".. c #EAE2D2",
"X. c #ECE2D8",
"o. c #F1E4D3",
"O. c #F8E6D0",
/* pixels */
"                O                     O O     X       .         ",
"        o O       X .                           O               ",
"    O       O                                 O   O   O O       ",
"      O     .     o                             . .             ",
"O o   . . ( I .           O           + O   . o ` ( . o   O     ",
"    . I ) ( ) / W . .         O           . ..K L ` K (         ",
"    . K / / / N ' U X..     O           ..) U { J ' N / . .     ",
"O   ` ) D N ' ! G D ) ..        O     ` ) M ' L { R / L Q       ",
"O . K ' L / ' K L ) / C   X .       X S ! { A U L ' U / D . O   ",
"  I ' L ' K L { } L K ) ... O . . O / { ) N { L L / L { N I     ",
". ( D / ' / { L N ` ' R ) ) . X X X R ^ ' P M { ' L { L N Q .   ",
". ) D L L / N { ) ^ ' R B V U R ~ U @ V ! [ { M L ' L ' ' ..  X ",
". ) ' R / / / L C K { Z / ^ { & = $ {   _ K ' ' ' ' ) L L L .   ",
"I K N ' ' S / { / / R / P > p , * a = ]   D o.N N L L R { ' I . ",
") ' ' R L [ M R / N T } ( % a u y p : S . { S / ' ) ' ' L D ^ O ",
"N / L { L N / U ( ' f L ^ t = i p : q /   ' K R G U L L U / K . ",
") N ' ' N ' L ' C I v S r 4 c 2 l 1 z 9    .] ' C ) S G ) ' L   ",
") { { N } ' K ) ) . j T q q R w ' 4 E 1 .   U ( ' ^ / } L N L   ",
"U U S ' H / / . .   k g 2 2 l 0 h 7 z e O       L ) N N ` { ( . ",
". ) G { U / ( O X   . z 1 < E e T 3 P . O O   . ..L / ' J ^ .   ",
"  / M U { S .   O     . b s c d k x X .     O . . ' / L ' ) .   ",
"O K / { N K   O     O   O     #   o               K ' { U (     ",
"  ..) N ' ` .         O   X     X     O .   .     ) N ' L  .X O ",
"  . L G R I   O                 .   O O     . X   L ' / R .     ",
"    ' ' m .                                       . G K G O     ",
"  . K L [ .                                         N D ) . X   ",
"  . ..) I . O                                     + ) D ..+     ",
"    . ^ W                                       O   X.S .       ",
"O   . ` .                                         . . `     O   ",
"  o .  .    O                                       . _         ",
"    O                                               +           ",
"      X                                           O             "
};
