/* XPM */
static char *Skeleton_3_1738270572[] = {
/* columns rows colors chars-per-pixel */
"32 32 111 2 ",
"   c black",
".  c #010000",
"X  c #000100",
"o  c #030000",
"O  c #000200",
"+  c #010200",
"@  c #000300",
"#  c #000301",
"$  c #000002",
"%  c #010002",
"&  c #030002",
"*  c #000302",
"=  c #020202",
"-  c #040000",
";  c #050100",
":  c #060000",
">  c #060300",
",  c #060002",
"<  c #070002",
"1  c #000400",
"2  c #000600",
"3  c #010600",
"4  c #020700",
"5  c #000503",
"6  c #040500",
"7  c #060501",
"8  c #040601",
"9  c #010004",
"0  c #000005",
"q  c #000007",
"w  c #000107",
"e  c #020006",
"r  c #030106",
"t  c #030007",
"y  c #040005",
"u  c #070005",
"i  c #000404",
"p  c #040406",
"a  c #080204",
"s  c #090006",
"d  c #000009",
"f  c #020008",
"g  c #00000A",
"h  c #00000B",
"j  c #060108",
"k  c #00030C",
"l  c #08000C",
"z  c #3B1F2E",
"x  c #3A1F3E",
"c  c #3D282D",
"v  c #3F2A2F",
"b  c #3F2D2D",
"n  c #362132",
"m  c #3A2333",
"M  c #3B2333",
"N  c #382B32",
"B  c #362339",
"V  c #37233C",
"C  c #3D213A",
"Z  c #3C2539",
"A  c #3F2639",
"S  c #3D263A",
"D  c #3C2B3B",
"F  c #3F2D3B",
"G  c #40272B",
"H  c #412C33",
"J  c #42263D",
"K  c #493036",
"L  c #3F2540",
"P  c #402246",
"I  c #402744",
"U  c #9E757D",
"Y  c #A0757E",
"T  c #A27F79",
"R  c #A27C7B",
"E  c #A88279",
"W  c #CAA593",
"Q  c #CEA893",
"!  c #CEA19B",
"~  c #C7AA9C",
"^  c #C9AD9F",
"/  c #D4A39C",
"(  c #C6A7A2",
")  c #C2A9A2",
"_  c #C3ACA4",
"`  c #CBAEA0",
"'  c #C4AAA9",
"]  c #C9A9AA",
"[  c #CAACAC",
"{  c #CAA5B6",
"}  c #EACDBB",
"|  c #EBCEBC",
" . c #E7CCC1",
".. c #E1CDC4",
"X. c #E9CBC1",
"o. c #EBCFC3",
"O. c #E7CECA",
"+. c #E7CFCF",
"@. c #E9CDC9",
"#. c #EBCEC8",
"$. c #F3CDCA",
"%. c #FDC8CE",
"&. c #E9D1C7",
"*. c #EDD2C7",
"=. c #ECD4C8",
"-. c #F3D5CB",
";. c #F2D6CA",
":. c #F7D2CC",
">. c #EEC8D5",
",. c #E4D7D1",
"<. c #EED0D0",
/* pixels */
"                                                                ",
"                                                                ",
"                                                                ",
"                                                                ",
"                                                                ",
"                                                                ",
"                                                                ",
"                                                                ",
"                  u f 2   r j 2 2 u r r 2 f u                   ",
"                8   r   r s u p r u a r   j   8                 ",
"                    ; r ; H c N N c H ; r                       ",
"                r 8   l b ' #.+.+.#.' b l ; 2 r                 ",
"                f   ; V ) #.o.;.;.o.#.) V ;   f                 ",
"                f 2 ; I ^ <. .} }  .<.` I   2 r                 ",
"                  2 8 x ` z K *.&.K z ` L 8                     ",
"                ;     P ~ L S O.O.S L ~ P     ;                 ",
"                ;   i   V [ } =.=.} [ V   2   ;                 ",
"                  f ; S E / Y ( ( Y / E S ; f                   ",
"                2 u C >.Q Y $.R R $.U Q >.Z < i                 ",
"                  F { [ m ,.) W W _ ,.m [ { J                   ",
"                  ; H G J ..&.;.;.&...I G G <                   ",
"                k 2 r S ! %.T n n T %.! S r 2 k                 ",
"                2 r 2 D o.:.M f j M :.X.D 4 r 2                 ",
"                  u u   k f   2   2 f k   r u                   ",
"                                                                ",
"                                                                ",
"                                                                ",
"                                                                ",
"                                                                ",
"                                                                ",
"                                                                ",
"                                                                "
};
