/* XPM */
static char *Skeleton_2_1738270507[] = {
/* columns rows colors chars-per-pixel */
"32 32 108 2 ",
"   c black",
".  c #010000",
"X  c #000100",
"o  c #010100",
"O  c #030000",
"+  c #000200",
"@  c #010300",
"#  c #000002",
"$  c #010002",
"%  c #030002",
"&  c #030102",
"*  c #040000",
"=  c #050100",
"-  c #060300",
";  c #060201",
":  c #070002",
">  c #000400",
",  c #010600",
"<  c #040500",
"1  c #060501",
"2  c #040601",
"3  c #000004",
"4  c #010004",
"5  c #000104",
"6  c #000005",
"7  c #010005",
"8  c #030005",
"9  c #000106",
"0  c #000007",
"q  c #010007",
"w  c #020006",
"e  c #030106",
"r  c #020107",
"t  c #040005",
"y  c #060004",
"u  c #070005",
"i  c #000404",
"p  c #010506",
"a  c #040406",
"s  c #090006",
"d  c #090307",
"f  c #020008",
"g  c #00000A",
"h  c #060108",
"j  c #08000C",
"k  c #3B1F2E",
"l  c #3A1F3E",
"z  c #3A2B24",
"x  c #3B2729",
"c  c #3F252E",
"v  c #3D282D",
"b  c #3D2A2E",
"n  c #3F2D2D",
"m  c #3D2330",
"M  c #382B32",
"N  c #3C2B33",
"B  c #3C2C37",
"V  c #362339",
"C  c #342538",
"Z  c #3D263A",
"A  c #39283B",
"S  c #392B3A",
"D  c #3E2938",
"F  c #402335",
"G  c #412C33",
"H  c #493036",
"J  c #3F2540",
"K  c #402246",
"L  c #402744",
"P  c #977873",
"I  c #9D7A76",
"U  c #96767B",
"Y  c #9F777F",
"T  c #A58183",
"R  c #C5A49F",
"E  c #C7AA9C",
"W  c #CAA89C",
"Q  c #CAA89E",
"!  c #C9AD9F",
"~  c #CEAD9E",
"^  c #C2A9A2",
"/  c #C7A8A5",
"(  c #CBAEA0",
")  c #CBA9A7",
"_  c #CDA3AD",
"`  c #C4AAA9",
"'  c #D0A8A9",
"]  c #C7A6B1",
"[  c #EBCABB",
"{  c #EACDBB",
"}  c #E7CCC1",
"|  c #EBCFC3",
" . c #E7CECA",
".. c #E7CFCF",
"X. c #E9CDC9",
"o. c #EACDC9",
"O. c #EBCEC8",
"+. c #EACECA",
"@. c #F0CFCA",
"#. c #F1CECC",
"$. c #EDD2C7",
"%. c #EAD2CE",
"&. c #F3D2CB",
"*. c #F2D6CA",
"=. c #F0D1CE",
"-. c #EBCBD6",
";. c #FACBD1",
":. c #EED0D0",
/* pixels */
"                                                                ",
"                                                                ",
"                                                                ",
"                                                                ",
"                                                                ",
"                                                                ",
"                                                                ",
"                                                                ",
"                  u f > i u h >   h a a > f u                   ",
"                2   a     s u i a u u   > f   2                 ",
"                      u ; G x M M b G ; a                       ",
"                a 2   j N ` O.....O.` n j ;   a                 ",
"                f   ; V ^ O.| *.*.| O.^ V ;   f                 ",
"                f > ; L ( :.} { { } -.( L ; > a                 ",
"                  > 2 l ( k H $.$.H x ( l 2   a                 ",
"                ;     K E J Z  . .Z J E K     ;                 ",
"                    ; C F ) [ &.&.[ ) c C                       ",
"                a ; F #.Y Q T R R T Q Y #.F : a                 ",
"                  A ] _ ~ P %.I I +.U ~ _ ] A                   ",
"                  s A b x %./ Q Q / %.x b S d                   ",
"                2   a u m #.#.O.+.#.#.m u     ;                 ",
"                f i   D ) ;.P B B P ;.) D   a a                 ",
"                a   a z -.O.N a a N O.-.z a   a                 ",
"                    a a   a   2 ;   a   a f a                   ",
"                                                                ",
"                                                                ",
"                                                                ",
"                                                                ",
"                                                                ",
"                                                                ",
"                                                                ",
"                                                                "
};
