/* XPM */
static char *Skeleton_1_1738270446[] = {
/* columns rows colors chars-per-pixel */
"32 32 114 2 ",
"   c black",
".  c #010000",
"X  c #000100",
"o  c #010100",
"O  c #030000",
"+  c #020100",
"@  c #030100",
"#  c #000200",
"$  c #000300",
"%  c #010300",
"&  c #020200",
"*  c #030200",
"=  c #010002",
"-  c #000302",
";  c #040000",
":  c #040001",
">  c #060000",
",  c #050200",
"<  c #040002",
"1  c #000400",
"2  c #050400",
"3  c #040402",
"4  c #010004",
"5  c #000005",
"6  c #010005",
"7  c #000105",
"8  c #000007",
"9  c #030007",
"0  c #070005",
"q  c #050304",
"w  c #0A0001",
"e  c #0E0301",
"r  c #0B0005",
"t  c #080206",
"y  c #050800",
"u  c #000009",
"i  c #030009",
"p  c #00020B",
"a  c #060009",
"s  c #07000A",
"d  c #04000E",
"f  c #0E0508",
"g  c #000110",
"h  c #020111",
"j  c #010310",
"k  c #000013",
"l  c #3B1E3D",
"z  c #31202A",
"x  c #362633",
"c  c #3E2231",
"v  c #3A2337",
"b  c #3D2437",
"n  c #3B2A30",
"m  c #382833",
"M  c #392933",
"N  c #3A2933",
"B  c #3D2831",
"V  c #39233A",
"C  c #39263A",
"Z  c #372938",
"A  c #401F3C",
"S  c #4C2236",
"D  c #412E34",
"F  c #40273A",
"G  c #43253D",
"H  c #392540",
"J  c #3B2941",
"K  c #3C2D44",
"L  c #412740",
"P  c #412B42",
"I  c #4C2C41",
"U  c #98737B",
"Y  c #9D7F7D",
"T  c #A47C7A",
"R  c #9B8172",
"E  c #9F7684",
"W  c #BFA89A",
"Q  c #C69C9E",
"!  c #C3A897",
"~  c #C3A29D",
"^  c #CBA79B",
"/  c #CDAC9D",
"(  c #C8B096",
")  c #C3A7A4",
"_  c #CEA9A0",
"`  c #CCABA2",
"'  c #C9ADA2",
"]  c #C0A1A9",
"[  c #C6A6AB",
"{  c #C2A9AC",
"}  c #D2A9A7",
"|  c #EDCEBA",
" . c #E3D1BB",
".. c #EDD1BC",
"X. c #E6CBC2",
"o. c #EACDC5",
"O. c #E6C9CB",
"+. c #E4CFCC",
"@. c #EACACB",
"#. c #ECCDC8",
"$. c #ECCFC9",
"%. c #EDCECB",
"&. c #F2C6C3",
"*. c #EDD2C1",
"=. c #EBD5C7",
"-. c #E7D6CE",
";. c #F4D3C4",
":. c #F0D5C4",
">. c #F7D5C9",
",. c #E9D3D5",
"<. c #EFD0D5",
"1. c #F1D3D1",
"2. c #F7D0D1",
"3. c #F2D6D2",
/* pixels */
"                                                                ",
"                                                                ",
"                                                                ",
"                                                                ",
"                                                                ",
"                                                                ",
"                                                                ",
"                                                                ",
"                <   1 g 1 6 s < < s 9 1 g 1   <                 ",
"                  3 6   f m C m n C m f   6 3                   ",
"                6   6 e F ) <.O.O.1.) F e 6 1 6                 ",
"                j   < D ] | ..:.=.....] D <   j                 ",
"                6 3 w v ' %.1. . .3.%.' v w   6                 ",
"                1 q s P W G l -.-.l A ! P s q 1                 ",
"                    s x { I G +.+.G I { m s                     ",
"                p 1   r v ! *.%.%.*.! b r   1 p                 ",
"                  y s H R ^ E / / E ^ R C s y                   ",
"                1 9 c 2.Q T ;.U U ;.T Q 2.c 9 1                 ",
"                i J _ } S [ %.>.>.#.[ S } ` J i                 ",
"                <   K z B ,.( ~ ~ ( ,.B z K <                   ",
"                < g   t G @.o.-.=.o.@.L t   h <                 ",
"                1 1 k B _ &.R C Z Y &._ N k 1 3                 ",
"                d   3 m X.1.C <   V 1.X.N 3   d                 ",
"                <   1 1 6 6   < < <   6   1                     ",
"                                                                ",
"                                                                ",
"                                                                ",
"                                                                ",
"                                                                ",
"                                                                ",
"                                                                ",
"                                                                "
};
