/* XPM */
static char *Skeleton1738270388[] = {
/* columns rows colors chars-per-pixel */
"32 32 113 2 ",
"   c black",
".  c #010000",
"X  c #000100",
"o  c #010101",
"O  c #030000",
"+  c #000200",
"@  c #000300",
"#  c #010300",
"$  c #030200",
"%  c #000002",
"&  c #010002",
"*  c #060000",
"=  c #060100",
"-  c #050200",
";  c #040002",
":  c #000400",
">  c #000600",
",  c #000700",
"<  c #040402",
"1  c #000005",
"2  c #010005",
"3  c #000105",
"4  c #000007",
"5  c #030007",
"6  c #060004",
"7  c #070004",
"8  c #050304",
"9  c #0A0001",
"0  c #0E0301",
"q  c #0B0005",
"w  c #090307",
"e  c #030009",
"r  c #00000B",
"t  c #00020B",
"y  c #040008",
"u  c #060009",
"i  c #07000A",
"p  c #01050E",
"a  c #0B0109",
"s  c #0E0508",
"d  c #000010",
"f  c #010010",
"g  c #000110",
"h  c #010310",
"j  c #3C1F21",
"k  c #3B1E3D",
"l  c #2E2737",
"z  c #362633",
"x  c #362537",
"c  c #392531",
"v  c #3A2337",
"b  c #3D2437",
"n  c #3C2736",
"m  c #3B2A30",
"M  c #382833",
"N  c #3D2C36",
"B  c #3C2339",
"V  c #39263A",
"C  c #3E2538",
"Z  c #3A2C3D",
"A  c #401F3C",
"S  c #412E34",
"D  c #40273A",
"F  c #43253D",
"G  c #392541",
"H  c #3D2942",
"J  c #482746",
"K  c #412B42",
"L  c #4C2C41",
"P  c #97797B",
"I  c #A2786C",
"U  c #A3786F",
"Y  c #99807B",
"T  c #A17880",
"R  c #BFA89A",
"E  c #CEA796",
"W  c #C3A897",
"Q  c #C2A89B",
"!  c #CDAC99",
"~  c #C8AE9D",
"^  c #C3A7A4",
"/  c #C8A6A4",
"(  c #C7ACA1",
")  c #C9ADA2",
"_  c #CDADA2",
"`  c #C0A1A9",
"'  c #C9A7A8",
"]  c #C2A9AC",
"[  c #D4A1A6",
"{  c #CBA9B9",
"}  c #EDCEBA",
"|  c #ECCFBD",
" . c #F0CAB5",
".. c #E3D1BB",
"X. c #EDD1BC",
"o. c #EDC6CB",
"O. c #E6C9CB",
"+. c #E4CFCC",
"@. c #ECCFC9",
"#. c #EDCECB",
"$. c #EBCDCD",
"%. c #F1CACD",
"&. c #E7D4C5",
"*. c #ECD1C0",
"=. c #EDD2C1",
"-. c #E3D1CF",
";. c #E7D6CE",
":. c #EDD2C9",
">. c #EAD1CC",
",. c #EED3CC",
"<. c #F0D5C4",
"1. c #EFD0D5",
"2. c #F2D6D2",
/* pixels */
"                                                                ",
"                                                                ",
"                                                                ",
"                                                                ",
"                                                                ",
"                                                                ",
"                                                                ",
"                                                                ",
"                ;   : g : 2 i ;   e i : g :   ;                 ",
"                  < 2   s c V m m V M s   2 <                   ",
"                2   2 0 D ^ 1.O.O.2.^ C 0 2 : 2                 ",
"                h   ; S ` } X.<.:.X.X.` S 9   g                 ",
"                2 < 9 v ) #.2.....2.#.) v 9 : 2                 ",
"                : 8 i K R F k ;.;.k B Q H i 8 :                 ",
"                    i z ] L F +.+.F L ] z a                     ",
"                t :   q v W *.#.#.*.W b q   : t                 ",
"                      G T [ I / / I [ P G                       ",
"                w   i c ! U %.Y P %.U ! z 7   w                 ",
"                  w v >.Q ) $.*.*.$._ ~ >.n w                   ",
"                , x { _ B -.~ E E ~ -.B ) { V ,                 ",
"                  i C j J :.| o.o.| :.J j C i                   ",
"                a   g Z '  .P H H P  .' Z g   a                 ",
"                7 : p l &.,.N r r N ,.&.l p   7                 ",
"                :     7 9 g   :     g 9 7     ,                 ",
"                                                                ",
"                                                                ",
"                                                                ",
"                                                                ",
"                                                                ",
"                                                                ",
"                                                                ",
"                                                                "
};
