/* XPM */
static char *color_background_551737758546[] = {
/* columns rows colors chars-per-pixel */
"32 32 49 1 ",
"  c #D7646B",
". c #D6656B",
"X c #D7636C",
"o c #D6646C",
"O c #D7656D",
"+ c #D7666C",
"@ c #D8656C",
"# c #D8646D",
"$ c #D9666D",
"% c #D8676D",
"& c #D9676F",
"* c #DA676E",
"= c #DA666F",
"- c #D9686E",
"; c #DB686F",
": c #DA696F",
"> c #DB6770",
", c #DD6870",
"< c #DD6871",
"1 c #DE6B72",
"2 c #DE6A73",
"3 c #E8777D",
"4 c #E8767E",
"5 c #E9777F",
"6 c #E7787E",
"7 c #E6797E",
"8 c #E9787E",
"9 c #E97A80",
"0 c #E87B80",
"q c #E97A81",
"w c #EB7A80",
"e c #EA7B81",
"r c #EC7B81",
"t c #ED7B83",
"y c #E97C81",
"u c #EB7C82",
"i c #EB7E83",
"p c #ED7C82",
"a c #EC7D83",
"s c #EE7D83",
"d c #EC7D84",
"f c #EE7C84",
"g c #EF7D85",
"h c #ED7E84",
"j c #EC7F84",
"k c #ED7E85",
"l c #EF7E84",
"z c #EF8086",
"x c #EE8186",
/* pixels */
"%%%%%%%% %% -; ;1X,;  % -%%%%%%%",
"rrrrrrrrrrsaa81 X1wraaarrrrrrrrr",
"aaaaaaaaaeiias8%>3ftkieraaaaaaaa",
"eeeeeeeeai668aa->rk66eekeeeeeeee",
"iiidiaiidixx8az Xddqxxaaiiidaiii",
"eeidieei88iiiaz Otdqxqe3eieiaire",
"ieerrerixz8a88a Xtqei6xarieririe",
"iriedire8i8axxs >ttki6iereireeir",
"eeieierrek6axaa Xtkka6aedeeridei",
"rddreeieklea88a %re8aizkeiieerre",
"ieeiiire6eii8xz Xkiqai86riieiide",
"iiididdiiaixaaa Xkx8xiaaddiiiidd",
"eeeeeeeeaee66dr->tt6e6ikeeeeeeee",
"aaaaaaaareekax3;>6kdareraaaaieaa",
"rrrrrrrrrrlra81 X1werkrrrrrrrrrr",
"%%%%%%%%%%% -; ;,X>> %%%%%%%%%%%",
",X,- %%%%%%%%%%%O%%%%%%%%%% -1 ;",
"X23rasr8rrrrrrrrrrrrrrrrrrria31X",
">3kaaaeaaaaaaairkrkiaaaareeias3%",
">ti6i8iaeeeeeeeeeeeeeeeekree8as%",
"Xkkexkikiiiiddiiiikiiiiiixxxika ",
"Okdqie86eireediieeeaeiae688a8ixO",
"Xtqqaelkeiieerreaeaeeaeaixia88a ",
"Xrkdk6keredriedieaeaaeae8a8azsa ",
"%ttkd6ierderdeerreeieiirra6iaar%",
"Xtqedelaeiieeiiedirrrreekxei8er%",
"%fkeiie6erieriieeiieieii3eexeal%",
"XkkexkekiiiiddiiidiiiaiaaaixiaaX",
">ta666iaeeeeeeeeeeeereeeaii86ar-",
"%3kkkieaaaaaaaaaaaaaaaaaa8iaia3;",
"X23aasrrrrrrrrrrrrrrrrrr8saas81X",
",X,- %% %%%%%%%%%%%%%%%- -  ;; ;"
};
